<?xml version="1.0" standalone="no"?>
<!DOCTYPE svg PUBLIC "-//W3C//DTD SVG 1.1//EN" "http://www.w3.org/Graphics/SVG/1.1/DTD/svg11.dtd" >
<svg xmlns="http://www.w3.org/2000/svg">
<metadata>Generated by IcoMoon</metadata>
<defs>
<font id="icomoon" horiz-adv-x="1024">
<font-face units-per-em="1024" ascent="870.4" descent="-153.6" />
<missing-glyph horiz-adv-x="1024" />
<glyph unicode="&#x20;" d="" />
<glyph unicode="&#xecc0;" glyph-name="abacus-alt" d="M586.189 647.913c-10.891 26.447-36.889 45.079-67.265 45.079s-56.371-18.632-67.26-45.079h-49.887c-10.887 26.447-36.884 45.079-67.26 45.079s-56.371-18.632-67.26-45.079h-53.985c-10.887 26.447-36.884 45.079-67.26 45.079s-56.373-18.632-67.262-45.079h-78.75v-55.321h78.75c10.889-26.446 36.887-45.076 67.262-45.076s56.373 18.631 67.26 45.076h53.985c10.889-26.446 36.884-45.076 67.26-45.076s56.373 18.631 67.262 45.076h49.886c10.888-26.446 36.884-45.076 67.259-45.076s56.373 18.631 67.262 45.076h437.813v55.321h-437.811zM877.988 156.158c-30.374 0-56.371-18.632-67.261-45.076h-53.983c-10.889 26.445-36.887 45.076-67.262 45.076s-56.371-18.632-67.259-45.076h-49.887c-10.889 26.445-36.887 45.076-67.262 45.076s-56.371-18.632-67.26-45.076h-437.814v-55.325h437.814c10.889-26.445 36.884-45.076 67.26-45.076s56.373 18.632 67.262 45.076h49.886c10.888-26.444 36.884-45.076 67.259-45.076s56.374 18.632 67.263 45.076h53.983c10.89-26.444 36.887-45.076 67.261-45.076s56.371 18.632 67.261 45.076h78.751v55.324h-78.751c-10.889 26.446-36.884 45.076-67.26 45.076zM789.391 422.527c-30.374 0-56.371-18.632-67.259-45.076h-49.886c-10.889 26.445-36.887 45.076-67.262 45.076s-56.371-18.632-67.26-45.076h-258.883c-10.887 26.445-36.884 45.076-67.26 45.076s-56.371-18.632-67.261-45.076h-144.318v-55.324h144.317c10.89-26.447 36.887-45.076 67.261-45.076s56.374 18.631 67.261 45.076h258.883c10.889-26.446 36.884-45.076 67.26-45.076s56.373 18.631 67.262 45.076h49.886c10.889-26.446 36.884-45.076 67.26-45.076s56.374 18.631 67.263 45.076h167.344v55.323h-167.345c-10.889 26.446-36.887 45.076-67.262 45.076z" />
<glyph unicode="&#xecc1;" glyph-name="abacus" d="M985.393 78.692h-10.227v697.422c0 20.549-17.285 37.198-38.593 37.198-21.32 0-38.595-16.65-38.595-37.198v-93.915h-112.162c-1.95 18.794-18.394 33.469-38.405 33.469-20.014 0-36.458-14.674-38.394-33.469h-180.491c-1.95 18.794-18.394 33.469-38.405 33.469-20.001 0-36.458-14.674-38.394-33.469h-51.845c-1.937 18.794-18.394 33.469-38.395 33.469-20.011 0-36.458-14.674-38.404-33.469h-197.061v93.915c0 20.549-17.287 37.198-38.595 37.198-21.32 0-38.595-16.65-38.595-37.198v-697.422h-10.24c-21.32 0-38.595-16.66-38.595-37.198v-114.101c0-20.536 17.275-37.197 38.595-37.197h946.813c21.307 0 38.595 16.66 38.595 37.197v114.101c-0.014 20.536-17.288 37.198-38.607 37.198zM322.883 607.803v-3.717c0-20.549 17.287-37.198 38.595-37.198 21.316 0 38.593 16.65 38.593 37.198v3.717h51.458v-3.717c0-20.549 17.287-37.198 38.595-37.198 21.315 0 38.593 16.65 38.593 37.198v3.717h180.103v-3.717c0-20.549 17.287-37.198 38.595-37.198 21.316 0 38.593 16.65 38.593 37.198v3.717h111.974v-184.548h-240.81c-1.949 18.794-18.393 33.469-38.404 33.469-20.014 0-36.458-14.674-38.394-33.469h-180.492c-1.935 18.794-18.393 33.469-38.404 33.469-20.001 0-36.458-14.674-38.394-33.469h-51.848c-1.935 18.794-18.393 33.469-38.394 33.469-20.011 0-36.468-14.674-38.404-33.469h-68.418v184.548h196.864zM126.008 348.86h68.229v-3.717c0-20.549 17.288-37.198 38.595-37.198 21.317 0 38.595 16.65 38.595 37.198v3.717h51.456v-3.717c0-20.549 17.288-37.198 38.595-37.198 21.317 0 38.595 16.65 38.595 37.198v3.717h180.101v-3.717c0-20.549 17.288-37.198 38.595-37.198 21.316 0 38.595 16.65 38.595 37.198v3.717h240.617v-270.168h-771.971v270.168z" />
<glyph unicode="&#xecc2;" glyph-name="angle" d="M287.539-17.869l545.69 881.869h-163.738l-634.675-1024h953.856v142.131h-701.133z" />
<glyph unicode="&#xecc3;" glyph-name="calculator-alt-1" d="M0 687.974v-301.261h295.731v301.261h-295.731zM227.635 525.773h-68.096v-69.427h-22.938v69.427h-68.198v23.142h68.096v69.632h22.938v-69.632h68.096v-23.142zM364.134 687.974v-301.261h295.731v301.261h-295.731zM576.307 488.294l-16.077-16.486-48.23 49.152-48.23-49.152-16.179 16.486 48.23 49.050-48.23 49.152 16.179 16.486 48.23-49.050 48.23 49.050 16.179-16.486-48.23-49.152 48.128-49.050zM728.269 687.974v-671.949h295.731v671.949h-295.731zM955.597 317.286h-159.232v23.142h159.232v-23.142zM955.597 386.714h-159.232v23.142h159.232v-23.142zM0 317.286v-301.261h295.731v301.261h-295.731zM227.635 155.085h-159.232v22.835h159.232v-22.835zM364.134 317.286v-301.261h295.731v301.261h-295.731zM500.634 224.512h22.733v-23.142h-22.733v23.142zM523.366 108.595h-22.733v23.142h22.733v-23.142zM591.77 155.085h-159.539v22.835h159.437v-22.835z" />
<glyph unicode="&#xecc4;" glyph-name="calculator-alt-2" d="M875.11 864h-725.914c-23.757 0-43.213-20.89-43.213-46.387v-931.328c0-25.498 19.456-46.387 43.213-46.387h725.914c23.757 0 43.213 20.89 43.213 46.387v931.328c0 25.498-19.456 46.387-43.213 46.387zM369.869-35.379c0-11.878-9.114-21.606-20.173-21.606h-116.429c-11.059 0-20.173 9.728-20.173 21.606v81.613c0 11.878 9.114 21.606 20.173 21.606h116.429c11.059 0 20.173-9.728 20.173-21.606v-81.613zM369.869 141.466c0-11.878-9.114-21.606-20.173-21.606h-116.429c-11.059 0-20.173 9.728-20.173 21.606v81.613c0 11.878 9.114 21.606 20.173 21.606h116.429c11.059 0 20.173-9.728 20.173-21.606v-81.613zM369.869 310.118c0-11.878-9.114-21.606-20.173-21.606h-116.429c-11.059 0-20.173 9.728-20.173 21.606v81.613c0 11.878 9.114 21.606 20.173 21.606h116.429c11.059 0 20.173-9.728 20.173-21.606v-81.613zM590.541-35.379c0-11.878-9.114-21.606-20.173-21.606h-116.429c-11.059 0-20.173 9.728-20.173 21.606v81.613c0 11.878 9.114 21.606 20.173 21.606h116.429c11.059 0 20.173-9.728 20.173-21.606v-81.613zM590.541 141.466c0-11.878-9.114-21.606-20.173-21.606h-116.429c-11.059 0-20.173 9.728-20.173 21.606v81.613c0 11.878 9.114 21.606 20.173 21.606h116.429c11.059 0 20.173-9.728 20.173-21.606v-81.613zM590.541 310.118c0-11.878-9.114-21.606-20.173-21.606h-116.429c-11.059 0-20.173 9.728-20.173 21.606v81.613c0 11.878 9.114 21.606 20.173 21.606h116.429c11.059 0 20.173-9.728 20.173-21.606v-81.613zM811.213-35.379c0-11.878-9.114-21.606-20.173-21.606h-116.429c-11.059 0-20.173 9.728-20.173 21.606v81.613c0 11.878 9.114 21.606 20.173 21.606h116.429c11.059 0 20.173-9.728 20.173-21.606v-81.613zM811.213 141.466c0-11.878-9.114-21.606-20.173-21.606h-116.429c-11.059 0-20.173 9.728-20.173 21.606v81.613c0 11.878 9.114 21.606 20.173 21.606h116.429c11.059 0 20.173-9.728 20.173-21.606v-81.613zM811.213 310.118c0-11.878-9.114-21.606-20.173-21.606h-116.429c-11.059 0-20.173 9.728-20.173 21.606v81.613c0 11.878 9.114 21.606 20.173 21.606h116.429c11.059 0 20.173-9.728 20.173-21.606v-81.613zM811.213 546.15c0-16.998-13.005-30.925-28.774-30.925h-540.467c-15.872 0-28.774 13.926-28.774 30.925v159.642c0 16.998 13.005 30.925 28.774 30.925h540.365c15.872 0 28.774-13.926 28.774-30.925v-159.642z" />
<glyph unicode="&#xecc5;" glyph-name="circle-ruler-alt" d="M259.031 520.468c103.752 61.8 217.037 81.357 337.592 61.71 42.904-6.992 83.797-19.971 123.173-37.62 2.842-1.274 8.471-1.242 10.26 0.532 5.578 5.532 9.931 12.192 14.817 18.489-139.41 73.226-349.784 81.966-520.925-30.163-89.9-58.9-154.102-137.503-192.293-235.213-21.27-54.418-31.42-110.8-31.653-168.753h27.742c4.076 30.863 5.896 61.297 12.374 90.793 28.442 129.513 101.609 230.354 218.913 300.227zM889.692 459.092l-18.42-23.439c80.191-88.272 120.883-190.218 122.563-306.34h30.164c-2.202 125.927-46.329 235.336-134.308 329.779zM897.951 601.791c-101.207-129.024-202.358-257.948-303.297-387.126l-12.865 8.595c14.776 18.919 29.288 37.533 43.905 56.095 86.482 110.359 172.964 220.67 259.446 330.979l12.81-8.543zM912.78 99.321c-0.85 14.291-1.807 28.633-4.040 42.772-14.883 94.492-60.807 172.607-136.020 235.263-3.457 2.849-7.231 5.443-11.27 8.545-2.816-3.56-4.89-6.103-6.857-8.747-16.476-22.428-32.369-45.263-49.592-67.133-6.857-8.696-6.486-13.985 0.743-22.121 22.323-25.327 35.613-54.671 38.218-87.882 1.17-14.95 0.532-15.002-14.989-15.002h-122.095c-64.582 0.051-129.164 0-193.747 0-37.793 0-75.586 0-113.326 0.051-29.34 0.051-25.088-3.509-21.154 24.818 5.9 43.178 29.128 78.778 64.742 105.427 82.601 61.741 173.867 70.083 270.82 36.516 9.515-3.308 18.498-7.883 28.278-12.052 20.41 27.818 40.45 55.179 61.764 84.27-131.609 61.792-262.42 65.352-389.566-3.103-134.161-72.266-200.868-186.288-207.726-334.691h793.060c13.182 0 13.607 0 12.756 13.070zM233.63 122.614c0-7.373-6.272-13.375-13.98-13.375s-13.98 6.001-13.98 13.375v23.852c0 7.373 6.273 13.375 13.98 13.375s13.98-6.001 13.98-13.375v-23.852zM292.1 122.614c0-7.373-6.272-13.375-13.98-13.375s-13.98 6.001-13.98 13.375v23.852c0 7.373 6.273 13.375 13.98 13.375s13.98-6.001 13.98-13.375v-23.852zM350.57 122.614c0-7.373-6.273-13.375-13.98-13.375s-13.98 6.001-13.98 13.375v23.852c0 7.373 6.273 13.375 13.98 13.375s13.978-6.001 13.978-13.375v-23.852zM409.039 122.614c0-7.373-6.272-13.375-13.978-13.375s-13.981 6.001-13.981 13.375v23.852c0 7.373 6.272 13.375 13.978 13.375s13.98-6.001 13.98-13.375v-23.852zM467.509 122.614c0-7.373-6.273-13.375-13.98-13.375s-13.98 6.001-13.98 13.375v23.852c0 7.373 6.273 13.375 13.98 13.375s13.978-6.001 13.978-13.375v-23.852zM525.978 122.614c0-7.373-6.272-13.375-13.978-13.375s-13.981 6.001-13.981 13.375v23.852c0 7.373 6.273 13.375 13.98 13.375s13.978-6.001 13.978-13.375v-23.852zM584.448 122.614c0-7.373-6.273-13.375-13.98-13.375s-13.98 6.001-13.98 13.375v23.852c0 7.373 6.273 13.375 13.98 13.375s13.978-6.001 13.978-13.375v-23.852zM642.918 122.614c0-7.373-6.273-13.375-13.98-13.375s-13.98 6.001-13.98 13.375v23.852c0 7.373 6.273 13.375 13.98 13.375s13.978-6.001 13.978-13.375v-23.852zM701.386 122.614c0-7.373-6.272-13.375-13.978-13.375s-13.981 6.001-13.981 13.375v23.852c0 7.373 6.273 13.375 13.98 13.375s13.978-6.001 13.978-13.375v-23.852zM759.856 122.614c0-7.373-6.272-13.375-13.978-13.375s-13.981 6.001-13.981 13.375v23.852c0 7.373 6.273 13.375 13.98 13.375s13.978-6.001 13.978-13.375v-23.852zM818.327 122.614c0-7.373-6.273-13.375-13.98-13.375s-13.98 6.001-13.98 13.375v23.852c0 7.373 6.273 13.375 13.98 13.375s13.978-6.001 13.978-13.375v-23.852z" />
<glyph unicode="&#xecc6;" glyph-name="circle-ruler" d="M548 712.96c15.998-2.775 32.145-4.861 47.954-8.503 19.395-4.467 38.502-10.234 59.050-15.796-7.608-18.948-14.527-36.178-21.878-54.484 11.605-5.057 22.698-9.892 34.836-15.18 7.487 18.173 14.569 35.359 21.914 53.182 38.248-18.311 71.887-41.695 103.813-71.475-14.052-13.363-27.423-26.077-40.984-38.975 10.254-10.020 18.881-18.449 27.901-27.264 11.889 12.498 24.791 26.061 38.349 40.315 31.579-35.907 55.766-73.583 73.997-116.291-17.539-7.168-34.169-13.963-52.047-21.268 4.532-12.090 8.888-23.716 13.525-36.084 17.79 6.987 34.773 13.658 52.508 20.623 14.873-44.575 21.845-89.59 22.1-136.724h-169.939c-3.305 86.968-38.851 156.81-107.922 207.471-46.145 33.845-98.243 48.319-154.644 45.058-123.034-7.114-232.602-114.611-231.803-252.7h-169.58c-0.383 47.198 7.347 92.659 22.166 138.25l55.391-22.092c4.625 12.047 9.073 23.63 13.885 36.161-18.507 7.516-36.308 14.746-54.020 21.939 6.712 26.507 48.911 92.887 73.159 115.231 13.097-14.037 26.196-28.074 39.294-42.109 9.951 10.473 18.428 19.395 27.695 29.15-13.842 13.337-27.683 26.671-41.525 40.008 32.927 30.47 67.048 54.183 105.705 72.139 7.503-18.258 14.742-35.871 22.366-54.424l34.894 14.737c-7.37 18.407-14.432 36.047-22.477 56.142 22.577 5.642 44.301 11.423 66.198 16.404 12.562 2.857 25.401 4.417 38.116 6.559h18v-57.127h36.001v57.129h18zM0 244.865c90.911 0.068 181.821 0.159 272.732 0.198 103.231 0.043 206.466 0.049 309.699 0.054 96.573 0.005 193.145 0.012 289.717-0.031 50.616-0.020 101.235-0.145 151.852-0.223v-253.552h-1024v253.553zM966.41 186.45h-908.68v-135.329h56.371v37.356h38.22v-37.334h37.738v76.401h37.796v-76.466h37.946v37.675h37.758v-37.806h37.937v77.418c6.216 0 11.159 0.102 16.097-0.018 21.983-0.529 21.928-0.553 21.825-23.020-0.084-18.059-0.017-36.12-0.017-54.794h37.235c0.285 4.072 0.617 6.765 0.64 9.462 0.256 30.484 0.24 30.28 29.51 29.55 6.516-0.164 8.878-2.167 8.581-8.916-0.43-9.789-0.11-19.613-0.11-29.443h37.944v76.447h37.829v-76.513h37.571c0 3.734-0.020 6.76 0.003 9.785 0.23 29.85 0.227 29.686 29.468 28.76 6.305-0.199 9.028-2.030 8.721-8.904-0.44-9.82-0.113-19.679-0.113-29.471h38.105v76.403h38.028v-76.4h37.702v37.304h37.832c0-10.803-0.319-20.756 0.22-30.659 0.138-2.537 2.874-6.937 4.613-7.042 10.793-0.655 21.645-0.328 33.415-0.328v77.084h37.699v-76.39h38.451v37.472h37.532v-37.465h56.133v135.178z" />
<glyph unicode="&#xecc7;" glyph-name="compass-alt-1" d="M245.965 78.694l-4.096-113.971 44.442-17.51 41.37 101.888c-6.656-1.946-13.517-3.379-20.787-3.379-25.6 0-48.026 13.21-60.928 32.973zM717.005 45.722c-8.192 0-15.974 1.638-23.245 4.096l41.677-102.707 44.339 17.51-3.891 111.206c-13.21-18.227-34.611-30.106-58.88-30.106zM238.285-160l24.781 71.475-22.63 10.957-2.15-82.432zM783.155-77.466l-22.63-10.957 24.781-71.475-2.15 82.432zM343.552 117.197c0-20.070-16.486-36.352-36.762-36.352s-36.762 16.282-36.762 36.352c0 19.968 16.486 36.25 36.762 36.25s36.762-16.282 36.762-36.25zM753.664 117.197c0-20.070-16.486-36.352-36.762-36.352-20.378 0-36.864 16.282-36.864 36.352 0 19.968 16.486 36.25 36.864 36.25s36.762-16.282 36.762-36.25zM516.403 698.214c10.65 0 20.992-1.024 31.13-2.97v27.955h35.738v140.8h-124.826v-140.698h35.738v-26.522c7.27 0.922 14.643 1.434 22.221 1.434zM378.163 526.694c0-24.986 6.861-48.333 18.739-68.403 16.179-27.546 41.779-48.845 72.499-59.802 14.746-5.222 30.515-8.294 46.899-8.294 13.005 0 25.293 1.843 37.171 5.12 30.925 8.499 57.344 27.341 75.469 52.531 16.077 22.221 25.6 49.357 25.6 78.746 0 75.264-61.952 136.397-138.138 136.397-76.39 0.102-138.24-61.030-138.24-136.294zM516.403 588.237c34.406 0 62.362-27.546 62.362-61.542s-27.955-61.542-62.362-61.542c-34.509 0-62.464 27.546-62.464 61.542s27.955 61.542 62.464 61.542zM190.976 300.8v-52.736h53.453v17.613h74.342l-32.563-80.384c6.554 1.946 13.414 3.379 20.685 3.379 27.034 0 50.278-14.746 62.669-36.352l45.978 113.357h78.643v-54.477c0-8.806 7.27-15.872 16.077-15.872h3.379c8.909 0 16.077 7.168 16.077 15.872v54.477h76.493l46.899-115.61c12.083 22.835 36.045 38.605 63.898 38.605 6.349 0 12.39-1.126 18.227-2.56l-32.256 79.565h76.288v-17.613h53.555v52.736h-53.555v-17.51h-83.456l-51.712 127.488c-20.685-22.221-47.309-39.219-77.21-48.23l32.154-79.258h-69.325v36.762c0 8.806-7.27 15.974-16.077 15.974h-3.379c-8.909 0-16.077-7.168-16.077-15.974v-36.762h-71.475l33.485 82.637c-29.696 10.854-55.501 29.389-75.162 53.248l-55.091-135.987h-81.51v17.613h-53.453z" />
<glyph unicode="&#xecc8;" glyph-name="compass-alt-2" d="M325.12 488.090c-79.258-226.304-224.256-648.090-224.256-648.090s222.72 255.795 383.283 441.958c-90.829 105.472-138.65 162.099-142.541 168.755-6.861 11.981-12.083 24.474-16.486 37.376zM922.419-160s-264.806 770.662-274.534 787.456c-20.787 35.942-53.76 60.211-90.829 71.168v119.91c0 25.088-20.275 45.466-45.466 45.466-25.088 0-45.466-20.378-45.466-45.466v-120.422c-10.752-3.379-21.197-7.68-31.334-13.619-74.65-43.008-100.25-138.445-57.139-212.992 9.83-16.794 544.768-631.501 544.768-631.501zM511.693 611.891c40.141 0 72.806-32.563 72.806-72.806s-32.666-72.806-72.806-72.806-72.806 32.563-72.806 72.806 32.563 72.806 72.806 72.806z" />
<glyph unicode="&#xecc9;" glyph-name="compass-alt-3" d="M147.968 37.427c2.048 3.277 4.403 6.451 5.939 9.933 21.197 46.592 42.189 93.184 63.181 139.776 1.331 2.97 2.867 5.939 4.198 8.602 38.298-11.059 76.186-22.016 115.507-33.28-48.435-106.394-91.443-216.064-147.661-322.355-6.554 30.822-12.698 59.392-18.739 87.859l-20.582 98.099c-0.307 1.229-1.229 2.253-1.843 3.379v7.987zM496.64 864c2.56-3.994 7.27-7.987 7.373-12.083 0.614-29.082 0.307-58.061 0.307-87.757-31.642 7.987-62.669 6.246-95.027-1.946v45.568c0 9.728 0.205 19.456 0.102 29.082-0.205 18.534 0.819 20.173 17.101 27.136h70.144zM450.765 421.325c-22.016-49.971-43.418-98.509-64.717-147.149 17.203-7.68 103.629-9.114 154.010 1.843-20.89 48.23-41.677 96.051-62.874 144.896 40.96 4.71 75.776 20.582 104.858 50.893 24.474-54.682 48.538-108.442 73.011-162.918 69.53 29.082 129.843 70.246 181.555 125.030 13.005-14.029 25.702-27.546 38.912-41.779-77.722-81.51-172.442-138.342-284.058-164.864-116.224-27.546-231.424-21.299-344.269 15.872 33.178 74.65 65.843 148.173 99.123 223.027 28.467-28.979 64-41.062 104.448-44.851zM338.227 600.525c-0.307 65.536 52.531 119.296 117.658 119.603 65.434 0.41 120.218-52.838 120.525-117.146 0.307-68.403-52.736-122.266-120.525-122.266-64.41 0-117.35 53.862-117.658 119.808zM504.832 600.32c0 25.907-21.197 47.821-46.592 48.026-27.648 0.307-48.435-20.685-48.538-48.845-0.102-25.6 21.504-47.206 47.309-47.206 25.805-0.102 47.821 22.118 47.821 48.026zM731.853-159.693l-144.282 324.813c39.014 12.288 76.595 24.064 115.302 36.25 6.963-15.258 14.438-31.539 21.811-47.923 15.872-35.328 31.232-70.963 47.616-106.086 4.608-10.035 5.427-19.046 2.97-29.696-13.107-57.037-25.498-114.176-38.093-171.213-0.307-1.536-0.819-3.072-1.229-4.608l-4.096-1.536z" />
<glyph unicode="&#xecca;" glyph-name="compass-alt-4" d="M905.83-136.346l-48.742 90.112c13.414 14.643 17.101 36.352 7.066 54.784l-115.917 214.118h72.704c18.125 0 32.563 14.234 32.563 32.051 0 17.613-14.541 32.051-32.563 32.051h-107.315l-54.989 101.478c48.23 40.653 79.053 100.966 79.053 168.448 0 111.821-84.070 203.981-193.024 219.546v55.706c-0.102 17.613-14.643 32.051-32.666 32.051-18.125 0-32.563-14.438-32.563-32.051v-55.398c-109.261-15.667-193.126-107.93-193.126-219.75 0-67.482 30.618-127.795 78.848-168.448l-54.784-101.478h-76.083c-18.022 0-32.563-14.336-32.563-32.051 0-17.613 14.541-32.051 32.563-32.051h41.267l-115.814-214.118c-10.035-18.534-6.451-40.346 7.066-54.989l-48.742-90.112c-4.198-7.885-1.229-17.613 6.656-21.709 2.56-1.229 5.12-1.946 7.782-1.946 5.734 0 11.469 3.174 14.336 8.602l48.845 90.112c2.355-0.307 4.71-0.819 7.066-0.819 17.408 0 34.304 9.216 43.213 25.395l140.288 259.379h251.29l140.288-259.379c8.909-16.179 25.805-25.395 43.213-25.395 2.458 0 4.813 0.41 7.066 0.819l48.845-90.214c2.867-5.325 8.499-8.397 14.336-8.397 2.56 0 5.325 0.614 7.782 1.946 7.987 4.096 10.957 13.824 6.758 21.709zM421.171 286.771l30.31 56.218c19.354-5.427 39.526-8.499 60.518-8.499s41.165 3.072 60.518 8.499l30.31-56.218h-181.658zM483.328 401.664l28.672 52.941 28.57-52.941c-9.216-1.536-18.739-2.867-28.57-2.867s-19.354 1.229-28.672 2.867zM626.79 446.925l-49.152 91.034c-10.445 19.354-30.925 31.437-53.248 31.437h-24.883c-22.221 0-42.701-12.083-53.248-31.437l-49.152-91.034c-28.058 28.467-45.67 67.174-45.67 109.875 0 87.245 71.885 158.003 160.461 158.003 88.371 0 160.461-70.861 160.461-158.003 0.102-42.701-17.51-81.51-45.568-109.875z" />
<glyph unicode="&#xeccb;" glyph-name="degrees-alt-1" d="M594.534 565.197c5.222-5.018 11.162-8.806 18.022-11.366s14.029-3.789 21.606-3.789c5.325 0 9.933 0.512 14.029 1.741 3.994 1.126 7.578 2.662 10.65 4.506s5.734 3.891 7.885 6.042c2.15 2.15 4.096 4.403 5.632 6.758-1.434-7.373-3.789-14.438-7.168-21.094s-7.68-12.595-13.005-17.818c-5.325-5.222-11.878-9.318-19.456-12.493-7.68-3.174-16.282-4.915-25.907-5.222-1.536-5.12-2.355-9.728-2.355-13.926 0-2.97 0.307-5.837 0.922-8.704 0.614-2.765 1.331-5.632 2.253-8.397 17.715 0.717 33.178 4.198 46.182 10.547s23.962 14.746 32.461 25.19 14.95 22.63 19.251 36.557c4.198 13.926 6.246 28.877 6.246 44.851 0 25.6-5.734 44.851-17.306 57.651s-28.365 19.251-50.278 19.251c-8.397 0-16.691-1.331-24.781-4.096s-15.155-6.758-21.299-12.288c-6.144-5.427-11.059-12.186-14.848-20.173s-5.632-17.203-5.632-27.75c0-10.342 1.536-19.354 4.608-27.034s7.168-14.029 12.288-18.944zM624.742 636.672c5.427 5.427 12.186 8.192 20.275 8.192 8.397 0 15.155-2.97 20.173-8.806s7.475-14.336 7.475-25.395c0-10.342-2.56-18.125-7.782-23.245-5.222-5.222-12.186-7.782-20.992-7.782-7.885 0-14.438 2.56-19.558 7.475s-7.782 13.312-7.782 24.883c0 10.957 2.765 19.149 8.192 24.678zM750.899 522.906c5.53-7.885 12.595-14.029 21.197-18.432s18.739-6.554 30.515-6.554 22.016 2.253 30.822 6.554c8.806 4.403 15.974 10.547 21.606 18.432s9.83 17.203 12.595 28.058 4.198 22.63 4.198 35.43-1.331 24.678-3.994 35.533c-2.662 10.854-6.758 20.275-12.39 28.16s-12.698 14.131-21.299 18.534c-8.602 4.506-18.739 6.758-30.515 6.758-11.878 0-22.221-2.253-30.925-6.758s-15.872-10.65-21.402-18.534c-5.632-7.885-9.83-17.306-12.698-28.16s-4.198-22.733-4.198-35.533c0-12.8 1.331-24.576 4.096-35.43s6.963-20.173 12.39-28.058zM781.722 629.402c5.222 9.216 12.288 13.824 21.402 13.824 8.909 0 15.974-4.608 20.992-13.824s7.475-23.552 7.475-43.008-2.56-33.894-7.475-43.008c-5.018-9.216-11.981-13.824-20.992-13.824-8.909 0-16.077 4.608-21.299 13.824s-7.885 23.552-7.885 43.008c0.102 19.456 2.662 33.792 7.782 43.008zM902.963 624.691c3.482-3.584 7.68-6.451 12.493-8.397 4.813-2.048 9.933-2.97 15.36-2.97s10.65 1.024 15.565 2.97 9.216 4.813 12.8 8.397 6.451 7.782 8.499 12.493 3.174 9.83 3.174 15.258c0 5.427-1.024 10.65-3.174 15.565-2.048 4.915-4.915 9.114-8.499 12.595s-7.885 6.349-12.8 8.397c-4.915 2.15-10.035 3.174-15.565 3.174-5.427 0-10.65-1.024-15.36-3.174-4.813-2.15-9.011-4.915-12.493-8.397s-6.349-7.68-8.397-12.595c-2.048-4.915-3.174-10.138-3.174-15.565s1.024-10.547 3.174-15.258 4.915-8.909 8.397-12.493zM919.347 665.037c3.174 3.379 7.066 5.018 11.571 5.018s8.499-1.638 11.878-5.018 5.018-7.578 5.018-12.595c0-5.12-1.638-9.216-5.018-12.39s-7.27-4.71-11.878-4.71-8.397 1.536-11.571 4.71c-3.174 3.174-4.71 7.27-4.71 12.39 0 5.018 1.536 9.318 4.71 12.595zM693.76 20.736c-22.938 256.922-219.238 463.36-471.552 502.17v341.094h-179.2v-1024h937.677v180.736h-286.925zM222.208 20.736v384.614c187.802-36.762 333.21-191.898 355.021-384.614h-355.021z" />
<glyph unicode="&#xeccc;" glyph-name="degrees-alt-2" d="M894.242 154.798c-31.87 182.298-190.584 321.034-381.993 321.034-191.631 0-350.566-138.737-382.481-321.034h-129.767v-110.41h1024v110.41h-129.761zM198.27 154.798c30.935 144.882 159.72 253.752 313.979 253.752 154.042 0 282.8-108.87 313.73-253.751h-627.71zM376.248 608.834l20.517 8.172v-58.393h-24.207c-0.294-1.71-0.514-3.434-0.658-5.165-0.106-1.556-0.164-3.117-0.171-4.678 0-1.782 0.072-3.444 0.171-5.007 0.143-1.731 0.365-3.454 0.659-5.166h71.080c0.343 1.894 0.563 3.615 0.66 5.166 0.123 1.666 0.179 3.336 0.171 5.007 0.004 1.561-0.053 3.121-0.171 4.678-0.098 1.551-0.317 3.273-0.659 5.166h-23.863v89.083h-4.495l-47.875-21.019c0.881-3.215 2.048-6.342 3.492-9.344 1.442-2.894 3.226-5.728 5.35-8.499zM474.415 544.349c3.957-2.724 8.451-4.702 13.507-5.923s10.26-1.833 15.609-1.833c5.325 0 10.527 0.612 15.583 1.833 5.081 1.221 9.574 3.2 13.532 5.923 3.932 2.724 7.107 6.229 9.503 10.516 2.393 4.274 3.59 9.427 3.59 15.423 0 4.336-0.612 8.207-1.833 11.602-1.221 3.383-2.785 6.387-4.69 9.001-1.829 2.555-4.045 4.809-6.571 6.68-2.516 1.833-4.983 3.359-7.426 4.58 4.324 2.675 7.939 6.205 10.846 10.601 2.882 4.385 4.323 9.417 4.323 15.096 0 4.665-0.928 8.891-2.833 12.677-1.855 3.744-4.495 7.043-7.743 9.673-3.297 2.675-7.181 4.726-11.676 6.18-4.519 1.441-9.38 2.161-14.607 2.161s-10.088-0.72-14.607-2.161c-4.495-1.454-8.403-3.505-11.676-6.18-3.246-2.632-5.886-5.929-7.741-9.673-1.905-3.786-2.834-8.012-2.834-12.677 0-5.679 1.417-10.735 4.25-15.181 2.833-4.458 6.424-7.951 10.747-10.516-2.565-1.219-5.032-2.771-7.426-4.664s-4.543-4.152-6.497-6.754c-1.954-2.614-3.492-5.618-4.665-9.013s-1.759-7.206-1.759-11.431c0-5.996 1.198-11.149 3.591-15.423 2.394-4.287 5.545-7.793 9.503-10.516zM492.515 636.435c2.443 2.394 6.131 3.591 11.016 3.591s8.598-1.198 11.090-3.591c2.515-2.394 3.761-5.532 3.761-9.416 0-4.678-1.368-8.378-4.104-11.102-2.711-2.724-6.302-4.86-10.747-6.423-4.348 1.563-7.864 3.701-10.601 6.424-2.711 2.724-4.079 6.425-4.079 11.103 0 3.884 1.221 7.022 3.664 9.416zM490.341 585.225c3.345 3.384 7.693 5.973 13.018 7.756 5.349-1.782 9.722-4.336 13.189-7.67 3.445-3.346 5.155-7.682 5.155-13.019 0-5.226-1.516-9.282-4.567-12.175-3.079-2.895-7.598-4.337-13.606-4.337-5.789 0-10.26 1.441-13.435 4.336s-4.762 6.949-4.762 12.175c0 5.228 1.686 9.539 5.007 12.935zM571.019 552.447c3.492-5.007 7.963-8.904 13.41-11.677 5.471-2.785 11.919-4.178 19.37-4.178s13.947 1.393 19.515 4.178c5.545 2.772 10.112 6.668 13.679 11.676s6.229 10.918 8.012 17.758c1.759 6.851 2.662 14.326 2.662 22.446 0 8.11-0.829 15.621-2.491 22.522-1.686 6.888-4.299 12.836-7.841 17.843-3.566 5.007-8.086 8.927-13.532 11.76s-11.895 4.262-19.345 4.262c-7.572 0-14.094-1.43-19.589-4.262-5.521-2.833-10.040-6.754-13.606-11.761s-6.229-10.957-8.012-17.844c-1.782-6.9-2.662-14.411-2.662-22.521 0-8.12 0.855-15.596 2.589-22.446 1.71-6.84 4.323-12.751 7.841-17.759zM590.535 619.923c3.273 5.837 7.816 8.757 13.581 8.757 5.691 0 10.112-2.918 13.263-8.757 3.174-5.837 4.762-14.936 4.762-27.272 0-12.347-1.587-21.446-4.762-27.284-3.151-5.837-7.572-8.757-13.263-8.757-5.667 0-10.161 2.918-13.507 8.757-3.323 5.837-5.007 14.936-5.007 27.284 0 12.335 1.636 21.434 4.933 27.272zM667.331 616.919c2.224-2.284 4.862-4.055 7.916-5.338 3.078-1.282 6.326-1.917 9.769-1.917s6.717 0.635 9.845 1.917c3.103 1.282 5.813 3.052 8.086 5.337s4.104 4.921 5.423 7.926c1.343 3.003 2.003 6.228 2.003 9.672s-0.66 6.728-2.003 9.844c-1.319 3.113-3.151 5.777-5.423 8.012-2.273 2.222-4.983 4.006-8.086 5.337-3.126 1.331-6.4 2.003-9.844 2.003s-6.692-0.672-9.769-2.003c-3.052-1.331-5.691-3.113-7.916-5.337-2.222-2.235-4.004-4.897-5.348-8.012-1.319-3.113-1.978-6.4-1.978-9.844s0.659-6.668 1.978-9.673c1.343-3.005 3.126-5.642 5.349-7.926zM677.663 642.529c2.004 2.111 4.471 3.162 7.352 3.162s5.399-1.050 7.5-3.164c2.125-2.111 3.174-4.787 3.174-8.011s-1.049-5.837-3.174-7.841c-2.101-2.003-4.618-3.004-7.499-3.004s-5.348 1.001-7.352 3.004c-1.976 2.003-2.98 4.616-2.98 7.841s1.004 5.898 2.98 8.012z" />
<glyph unicode="&#xeccd;" glyph-name="degrees" d="M782.203 269.24c2.536-0.209 5.079-0.315 7.624-0.319 2.396 0 4.731 0.113 6.984 0.319s4.583 0.455 6.982 0.743v29.612h15.223c0.435 1.972 0.744 4.089 0.952 6.342 0.202 2.181 0.305 4.368 0.309 6.558 0 4.369-0.413 8.606-1.26 12.696h-15.224v33.847c-2.537 0.28-5.079 0.524-7.623 0.734-2.534 0.213-5.077 0.319-7.622 0.317-2.396 0-4.71-0.102-6.96-0.317-2.332-0.217-4.659-0.461-6.984-0.735v-33.847h-30.263l43.587 88.422c-3.945 3.1-8.141 5.391-12.6 6.868-4.444 1.489-9.048 2.501-13.841 3.069l-59.866-120.988 1.9-2.967h71.083v-29.612c2.54-0.289 5.062-0.537 7.602-0.743zM848.413 339.579l3.18-2.542c3.944 1.974 7.85 3.346 11.733 4.122 3.94 0.782 7.946 1.174 11.962 1.167 10.433 0 17.973-1.983 22.641-5.929 4.647-3.946 6.963-9.513 6.963-16.712 0-3.244-0.559-6.374-1.675-9.411-1.137-3.035-3.037-5.711-5.724-8.036s-6.134-4.202-10.368-5.607c-4.213-1.406-9.5-2.118-15.864-2.118-4.936 0-9.585 0.495-13.963 1.487-4.359 0.98-9.008 2.324-13.947 4.019-1.694-4.106-3.25-8.27-4.666-12.481-1.393-4.188-2.314-8.518-2.748-12.91 3.336-1.155 6.728-2.14 10.163-2.952 3.512-0.848 6.879-1.519 10.040-2.014 3.182-0.497 6.134-0.848 8.882-1.053 2.748-0.218 5.041-0.323 6.879-0.323 9.874 0 18.798 1.126 26.752 3.389 7.974 2.25 14.751 5.64 20.306 10.154 5.576 4.502 9.876 10.080 12.91 16.701 3.037 6.63 4.547 14.316 4.547 23.064 0 7.188-1.116 13.54-3.389 19.036-2.253 5.496-5.393 10.122-9.4 13.851-4.026 3.74-8.861 6.56-14.502 8.468-5.639 1.902-11.919 2.852-18.817 2.852-2.048 0.006-4.096-0.1-6.134-0.319-1.985-0.205-4.237-0.6-6.776-1.157l1.28 30.244h48.646c0.847 4.235 1.26 8.602 1.26 13.117 0 4.263-0.422 8.515-1.26 12.695h-75.733l-3.178-80.801zM969.423 381.771c2.809-2.893 6.154-5.14 10.038-6.765 3.885-1.62 7.995-2.437 12.375-2.437s8.53 0.817 12.477 2.437c3.944 1.622 7.373 3.871 10.268 6.765 2.891 2.893 5.185 6.249 6.878 10.050 1.692 3.811 2.54 7.902 2.54 12.272 0 4.368-0.847 8.532-2.54 12.476-1.694 3.946-3.987 7.332-6.879 10.153s-6.323 5.082-10.268 6.775c-3.946 1.693-8.097 2.532-12.477 2.532s-8.489-0.84-12.375-2.533c-3.883-1.693-7.229-3.956-10.038-6.776-2.83-2.822-5.083-6.209-6.774-10.154-1.695-3.944-2.542-8.108-2.542-12.475 0-4.369 0.847-8.461 2.542-12.271 1.69-3.801 3.944-7.158 6.774-10.050zM982.54 414.246c2.519 2.673 5.639 4.017 9.298 4.017 3.676 0 6.835-1.343 9.521-4.017 2.687-2.677 4.007-6.065 4.007-10.153 0-4.091-1.321-7.409-4.007-9.948-2.687-2.529-5.847-3.801-9.523-3.801-3.656 0-6.775 1.27-9.296 3.801-2.542 2.54-3.822 5.857-3.822 9.948 0 4.088 1.28 7.475 3.822 10.153zM554.481 347.143l349.878 389.14-163.274 27.364-741.085-822.948 1024-0.031v139.796h-308.91c-27.078 104.134-83.714 196.233-160.609 266.676zM314.706 80.463l171.706 190.976c55.847-51.566 98.671-117.024 122.814-190.977h-294.521z" />
<glyph unicode="&#xecce;" glyph-name="golden-ratio" d="M427.11 863.386v-26.010c-1.638-0.614-3.174-1.331-4.813-1.741-54.067-15.667-92.57-49.869-117.965-99.942-15.258-30.003-24.371-62.054-30.106-95.13-9.626-54.989-11.059-110.285-7.27-165.888 2.97-43.622 10.24-86.426 25.293-127.693 14.234-39.014 34.816-74.035 65.229-102.605s66.355-46.797 106.291-57.242c0.717-0.205 1.434-0.102 2.97-0.307v9.728c0 140.902-0.205 281.805 0.102 422.707 0.102 28.365 1.638 56.73 3.277 84.992 1.024 17.203 3.789 34.202 8.499 50.79 14.234 50.586 60.416 94.208 111.411 104.653 43.213 8.909 84.685 2.458 124.621-15.872 33.28-15.36 61.338-38.093 86.835-64.307 47.002-48.333 74.854-106.394 87.040-172.646 6.349-34.406 6.861-69.018 5.939-103.731-2.253-81.613-29.594-154.317-76.698-220.058-45.363-63.181-106.803-101.99-180.326-122.675-27.546-7.782-55.603-12.902-84.173-15.462-1.946-0.205-3.891-0.614-6.963-1.126v-303.821h-79.36v303.923c-3.379 0.614-6.246 1.229-9.114 1.536-75.776 7.987-144.998 32.768-203.776 83.046-58.061 49.664-95.027 112.333-112.538 186.88-11.674 49.971-14.643 100.659-10.24 151.757 4.71 54.17 18.944 105.574 47.923 151.962 43.315 69.12 103.322 115.712 182.579 135.578 19.968 5.018 40.346 7.987 60.928 8.909 1.126 0 2.355-0.102 4.403-0.205zM546.406 186.726c24.678 3.174 49.562 9.626 73.523 19.046 59.187 23.245 102.195 63.693 128.205 122.368 15.974 36.045 23.859 74.035 27.034 113.152 3.482 42.291 2.56 84.48-3.994 126.566-5.53 35.43-15.053 69.734-30.618 102.093-12.698 26.624-28.365 51.302-49.357 72.192-20.070 19.866-43.52 32.973-72.192 35.43-20.378 1.741-37.581-4.301-50.995-20.173-10.65-12.493-16.589-26.931-18.534-43.213-2.97-25.19-3.174-50.586-3.174-75.878v-442.47l0.102-9.114z" />
<glyph unicode="&#xeccf;" glyph-name="marker-alt-1" d="M7.17-51.905c-5.913-6.029-8.279-14.399-6.687-22.614 1.754-8.092 7.463-14.877 15.293-18.129l85.845-36.141c10.031-4.324 21.654-1.826 29.322 5.911l18.964 19.519-101.465 93.747-41.272-42.295zM959.616 546.912l2.079 2.142c12.602 13.013 11.95 33.642-1.587 45.9l24.834 26.027-235.266 213.835-24.876-26.027-5.222 4.96c-15.78 14.282-40.331 13.33-55.136-1.866l-322.578-335.826c-6.526-6.943-10.032-15.95-9.708-25.391 0.287-9.324 4.444-18.289 11.459-24.637l-237.998-243.63s-4.485-40.743 14.479-88.47l-61.949-63.556 132.377-122.271 63.414 64.944c49.060-15.353 90.167-10.871 90.167-10.871l239.712 245.651 0.326-0.317c14.681-13.329 37.601-12.536 51.302 1.866l174.584 181.78 33.768-30.709-249.293-259.574 25.16-22.932c7.504-6.824 17.537-10.353 27.733-10.076 10.196 0.317 19.903 4.68 26.752 11.94l335.017 348.682c10.032 10.394 15.293 24.2 14.804 38.441-0.449 14.244-6.687 27.574-17.332 37.335l-47.020 42.646zM718.438 688.067l-214.268-222.048c-7.462-7.936-17.821-11.784-28.017-11.784-9.421 0-18.801 3.412-26.302 10.076-15.458 14.244-16.232 37.808-1.756 52.845l214.269 222.048c14.517 15.194 38.699 15.989 54.318 1.706 15.457-14.083 16.271-37.808 1.755-52.844z" />
<glyph unicode="&#xecd0;" glyph-name="marker-alt-2" d="M0-98.584c42.476-14.831 81.564-28.477 120.65-42.127h8.141c8.353 10.121 16.705 20.242 22.925 27.778-28.081 30.174-54.397 58.45-75.882 81.539-25.958-22.999-50.201-44.479-75.833-67.19zM1006.275 707.985c-36.696 36.094-72.765 72.827-109.287 109.097-36.248 35.997-41.708 36.247-80.456 2.857-181.61-156.492-363.094-313.137-544.834-469.481-7.997-6.881-18.072-11.351-26.538-16.551 92.211-91.99 177.398-176.971 266.152-265.513 168.327 195.354 335.34 389.124 502.256 582.978 18.333 21.291 10.337 39.274-7.293 56.614zM135.113 215.937c-8.646-10.921-14.387-31.304-10.394-43.851 18.964-59.601 25.364-116.224-17.943-159.67 29.184-32.676 55.012-61.594 70.158-78.551 49.625 8.425 92.239 28.678 125.594 18.521 63.014-19.186 102.977-0.758 139.653 46.096 9.813 12.536 24.264 21.441 34.793 30.474-91.582 91.752-177.389 177.722-267.557 268.059-23.761-25.436-51.030-51.676-74.306-81.077z" />
<glyph unicode="&#xecd1;" glyph-name="marker-alt-3" d="M8.172-99.999c3.313-3.357 3.313-3.357 6.799-3.357l139.465-27.205c3.357 0 10.158 0 13.644 3.486l50.964 50.964 13.603-13.601 40.677 40.85 180.313 10.115 547.441 567.844c30.562 30.562 30.562 78.213 0 108.943l-170.025 173.341c-30.521 30.563-78.172 30.563-108.733 0l-571.372-544.125-10.115-180.142-40.849-40.851 13.601-13.599-108.732-108.776c-3.486-3.485-6.799-10.284-3.486-17.087l6.802-6.802zM678.157 627.755l139.295-139.507-282.286-282.071-139.293 139.29 282.284 282.286z" />
<glyph unicode="&#xecd2;" glyph-name="mathematical-alt-1" d="M0 377.523h472.652v472.653h-472.652v-472.653zM131.011 638.098h81.027v81.067h48.415v-81.067h81.19v-48.374h-81.188v-81.189h-48.417v81.188h-81.029v48.374zM0-146.642h472.652v472.612h-472.652v-472.612zM131.011 113.772h210.631v-48.374h-210.631v48.374zM551.347 850.176v-472.653h472.653v472.653h-472.652zM894.556 556.427l-34.218-34.259-57.344 57.502-57.502-57.502-34.222 34.259 57.303 57.503-57.303 57.303 34.222 34.261 57.342-57.503 57.503 57.503 34.219-34.262-57.341-57.303 57.342-57.502zM551.348-146.641h472.652v472.611h-472.652v-472.612zM835.969-20.697c-2.051-4.705-4.864-8.765-8.484-12.386-3.458-3.458-7.519-6.273-12.385-8.485-4.746-2.212-9.933-3.297-15.24-3.297-5.509 0-10.696 0.925-15.563 3.297-4.704 2.212-8.806 5.028-12.425 8.485-3.458 3.62-6.273 7.68-8.323 12.386-2.011 4.866-3.138 10.053-3.138 15.401-0.010 5.294 1.059 10.533 3.138 15.401 2.048 4.866 4.864 8.968 8.323 12.544 3.459 3.461 7.721 6.154 12.425 8.366 4.867 2.010 10.054 3.137 15.563 3.137 5.309 0 10.496-1.126 15.24-3.137 4.866-2.051 8.927-4.905 12.386-8.364 3.62-3.578 6.434-7.68 8.486-12.546 2.051-4.705 3.135-9.892 3.135-15.401 0-5.348-1.085-10.535-3.137-15.401zM763.548 199.866c2.048 4.705 4.864 8.929 8.485 12.386 3.457 3.619 7.559 6.433 12.425 8.645 4.705 2.212 9.892 3.297 15.401 3.297 5.468 0 10.496-1.085 15.24-3.297 4.866-2.212 8.927-5.028 12.544-8.645 3.461-3.458 6.274-7.68 8.325-12.386 2.052-4.866 3.137-9.892 3.137-15.401s-1.085-10.535-3.135-15.401c-2.052-4.705-4.866-8.968-8.325-12.386-3.457-3.458-7.519-6.313-12.544-8.485-4.747-2.051-9.773-3.015-15.241-3.015-5.509 0-10.535 0.965-15.401 3.015-4.706 2.171-8.968 5.028-12.425 8.485-3.62 3.418-6.435 7.52-8.485 12.386-2.011 4.866-3.138 9.892-3.138 15.401s1.126 10.535 3.138 15.401zM696.957 118.154h211.917v-59.513h-211.919v59.513z" />
<glyph unicode="&#xecd3;" glyph-name="mathematical-alt-2" d="M256.723 484.616h52.029v89.59h87.231v53.439h-87.231v89.592h-52.029v-89.592h-87.23v-53.439h87.231v-89.59zM741.038 296.812l61.725-63.271 36.751 37.745-61.727 63.271 61.727 63.437-36.751 37.745-61.725-63.396-61.604 63.396-36.792-37.745 61.606-63.437-61.604-63.273 36.789-37.743 61.604 63.271zM169.492 351.88h226.491v-53.435h-226.491v53.435zM642.642 717.237h226.492v-53.268h-226.492v53.268zM642.642 616.682h226.492v-53.271h-226.492v53.268zM1024 837.376h-1024v-704.182h373.207l-128.584-266.476h99.168l44.083 91.894h229.792l44.085-91.894h100.27l-129.564 266.476h391.542v704.182zM420.469 26.446l51.092 106.749h62.255l51.215-106.749h-164.561zM979.916 178.469h-935.833v613.63h935.834v-613.629z" />
<glyph unicode="&#xecd4;" glyph-name="mathematical" d="M868.026 359.868v48.577l-7.091 2.818c-2.338 0.967-59.474 23.101-135.666 23.101-42.186 0-81.39-6.761-117.251-19.96l-12.449 53.445c29.896 4.106 51.937 8.651 51.937 8.651v54.413s-28.488-5.837-64.187-10.222l-16.845 73.086h12.898v121.538h-44.405v95.744h-47.344v-95.744h-44.564v-121.702h13.056l-16.841-72.761c-35.703 4.387-64.348 10.061-64.348 10.061v-54.415s22.159-4.545 52.098-8.65l-11.807-50.427c-33.523 11.146-69.584 16.822-108.467 16.822-76.155 0-133.289-22.175-135.666-23.139l-7.091-2.659v-44.954c-22.965-4.265-37.431-12.114-37.431-24.709v-463.585h341.842c11.807-10.544 29.13-17.303 48.472-17.303 19.382 0 36.669 6.758 48.473 17.304h333.22v463.583c0 10.383-11.643 16.983-30.543 21.088zM594.964 409.088c-9.631-4.104-19.060-8.653-28.206-13.523l-15.877 67.252c10.316 0.788 20.608 1.848 30.866 3.177l13.217-56.907zM569.457 519.117c-10.236-1.249-20.79-2.054-31.187-2.697l-18.25 77.189h32.111l17.326-74.492zM524.127 515.656c-4.106 0-8.178-0.161-12.128-0.161-4.393 0-8.984 0.161-13.539 0.323l12.774 54.37 12.892-54.531zM457.081 701.307h108.428v-93.69h-108.428v93.69zM470.459 593.774h31.949l-18.091-77.193c-10.394 0.645-20.951 1.451-31.187 2.697l17.329 74.496zM440.842 466.115c9.953-1.246 20.306-2.174 30.866-3.138l-14.95-63.185c-9.147 4.707-18.573 8.974-28.324 12.715l12.411 53.606zM512.322-88.177c-28.324 11.629-126.075 48.896-223.986 48.896-38.722 0-73.011-5.996-102.144-17.789v450.261c17.005 5.673 63.422 19.036 120.556 19.036 75.227 0 139.776-22.658 192.52-66.964v-268.678l13.054 14.288v-179.049zM515.949 360.473c-14.668 12.595-30.060 23.462-46.297 32.717l16.077 68.862c8.743-0.637 17.504-0.959 26.27-0.967 8.021 0 16.36 0.321 24.863 0.805l17.324-73.889c-13.215-8.172-26.15-17.147-38.236-27.528zM845.826-57.19c-31.308 12.718-67.371 18.995-107.18 18.995-97.911 0-190.907-37.386-218.949-49.823v178.89l13.094-14.287v268.677c52.703 44.308 117.252 66.966 192.478 66.966 56.975 0 103.554-13.363 120.556-19.036v-450.382zM0 739.502l11-451.471 35.74 43.387 10.234 12.554 388.625 472.596-445.599-77.066zM366.866 753.666l-9.912-12.276-6.889-8.492-7.578-9.093-6.928-8.332-10.074-12.595-6.929-8.331-7.373-9.093-6.93-8.333-9.47-11.631-14.305-17.627-6.932-8.332-10.233-12.554-6.767-8.33-7.537-9.134-6.767-8.493-9.308-11.147-0.321 0.321-5.038-6.479-5.802-9.093-7.575-9.136-6.892-8.492-10.233-12.396-6.929-8.332-7.414-9.134-6.932-8.493-10.074-12.115-6.93-8.491-7.373-9.097-6.932-8.33-10.234-12.436-6.932-8.492-7.534-9.096-6.767-8.331-9.47-11.471-7.052-8.492-7.414-8.975-6.929-8.492-10.398-12.432-6.769-8.453-7.373-9.134-6.932-8.331-21.716-26.242-9.308 383.256 375.688 64.915-21.558-26.24-6.928-8.492zM83.891 487.686l184.136 224.005-188.849-32.677 4.716-191.324zM220.36 683.88l-118.54-143.995-2.98 122.907 121.522 21.088zM686.23 846.592l-89.413-85.361 337.936-352.625 89.247 85.358-337.77 352.628zM917.465 457.783l-10.718 11.028-22.202 23.422-48.955 50.949-15.553 16.34-33.080 34.409-15.876 16.663-10.719 11.025-11.482 12.114-10.718 11.15-14.627 15.413-22.364 23.262-10.675 11.147-15.914 16.502-10.678 11.186-11.646 12.076-10.557 11.187-14.346 14.932 58.104 55.657 308.159-321.638-58.064-55.657-18.091 18.831z" />
<glyph unicode="&#xecd5;" glyph-name="pen-alt-1" d="M534.733 209.254c-214.528-192.102-482.304-402.33-518.656-364.851-36.557 37.376 168.653 311.603 356.147 531.251l162.509-166.4zM990.925 524.544l-76.083 77.824c33.28 50.483 43.418 86.528 40.038 114.381l56.73 58.163-86.938 89.088-57.958-59.29c-48.23 4.608-120.627-32.973-251.392-166.912-48.23-49.459-108.032-115.712-169.882-188.006l163.021-167.117c70.758 63.386 135.373 124.621 183.603 174.080 34.509 35.43 62.259 66.458 84.685 94.208l47.821-48.947-154.522-158.413c-12.288-12.493-12.288-32.666 0-45.261 12.186-12.493 31.949-12.493 44.134 0l176.742 180.941c12.186 12.595 12.186 32.768 0 45.261z" />
<glyph unicode="&#xecd6;" glyph-name="pen-alt-2" d="M838.758 621.517l29.594 39.117c40.55 53.453 32.256 131.686-18.432 174.49l-1.843 1.638c-50.688 42.906-124.518 34.202-165.069-19.456l-29.491-39.014 185.242-156.774zM658.842 292.608c1.024-9.523 5.427-18.534 13.005-24.986 15.258-12.902 37.478-10.342 49.562 5.837l203.059 268.595c12.39 16.282 9.626 40.346-6.246 53.043-15.36 12.288-37.376 8.806-49.357-7.066l-19.866-26.214-33.894 28.672 0.102 0.102-184.934 156.877-473.498-625.766 185.139-156.774 429.363 567.296 33.894-28.672-138.752-183.501c-6.144-7.987-8.602-18.022-7.578-27.443zM311.194-64.051l-174.387 147.763c-2.867-10.342-4.301-19.354-4.301-19.354l-39.936-202.445c-2.867-14.541 11.162-26.522 23.962-20.275l178.074 85.709c-0.205 0 7.68 3.482 16.589 8.602z" />
<glyph unicode="&#xecd7;" glyph-name="pen-alt-3" d="M275.866 864l-78.746-512c236.237-170.701 275.558-512 275.558-512h24.576v535.962c-25.088 7.373-44.237 31.744-44.237 61.338 0 35.328 26.419 64 59.085 64 32.563 0 59.085-28.672 59.085-64 0-29.491-19.251-53.965-44.237-61.338v-535.962h24.576s39.322 341.299 275.558 512l-78.848 512h-472.371z" />
<glyph unicode="&#xecd8;" glyph-name="pen-holder-alt-1" d="M786.432 495.36l-78.029-653.619v-1.741h-392.192l-78.029 654.438h80.896l-29.798 211.251 78.131 9.523 30.618-220.774h51.098l-12.083 141.414 78.029 6.042 13.005-147.456h60.416l1.843 254.362h78.95s20.48-1.741 40.96-15.462c17.715-12.083 27.955-31.027 29.798-55.194 2.765-44.032 1.843-99.226 1.843-101.786-0.922-8.602-7.373-15.462-16.691-17.203h-3.789c-11.162 0.819-19.456 8.602-19.456 18.944 0 0.819 1.843 56.934-1.843 98.304-0.922 12.902-5.53 22.426-13.926 28.467-5.53 4.301-13.005 6.042-19.456 6.963l-1.126-216.474h120.832zM286.208 725.35l77.414 9.421-2.56 17.92-77.414-9.421 2.56-17.92zM280.678 761.19l77.414 9.421-2.56 17.92-77.414-9.421 2.56-17.92zM275.251 797.133l78.029 9.523-2.765 18.125s-3.686 44.032-44.646 38.81c-40.858-5.12-32.563-48.23-32.563-48.23l1.946-18.227zM434.79 655.616l77.824 5.837-1.536 18.022-77.824-5.837 1.536-18.022zM431.309 691.866l77.824 5.734-1.536 18.022-77.824-5.734 1.536-18.022zM427.725 728.218l78.029 6.042-1.843 18.125s-1.843 44.032-42.701 41.472c-42.701-3.482-35.328-46.592-35.328-46.592l1.843-19.046zM666.522 785.971h-17.613v55.194h-39.014v-55.194h-21.402v-18.125h78.029v18.125z" />
<glyph unicode="&#xecd9;" glyph-name="pen-holder" d="M706.765 430.95l147.968 262.758-183.296 102.605-157.901-280.576 151.552-84.787h41.677zM609.382 547.686c-3.482-0.922-6.963-0.512-10.035 1.126l-9.83 5.53c-6.246 3.584-8.499 11.469-4.915 17.818l83.968 149.504c1.741 2.97 4.608 5.222 7.885 6.144s6.963 0.512 9.933-1.229l9.933-5.53c6.144-3.482 8.499-11.469 4.915-17.818l-83.968-149.299c-1.741-3.072-4.608-5.325-7.885-6.246zM605.286 430.95h-139.674l33.587 59.699 106.086-59.699zM938.803 658.278l-128.102-227.328h-73.728l165.683 294.605 20.48-12.186c19.763-10.957 26.829-35.43 15.667-55.091zM843.264 732.928l-153.19 86.221c23.654 42.394 77.414 57.344 119.603 33.587 42.394-23.859 57.549-77.414 33.587-119.808zM175.514 430.95h42.394l-13.312 49.562c-0.717 3.072-0.307 5.837 1.331 8.499 1.536 2.662 4.096 4.403 7.066 5.222l10.547 2.662c6.144 1.536 12.493-1.536 14.234-7.782l15.462-58.266h113.254l-57.242 217.088-178.586-46.592 44.851-170.394zM191.386 576.256l10.547 2.662c6.144 1.536 12.493-2.048 14.234-8.192l5.325-20.685c0.819-2.97 0.512-6.144-1.126-8.806-1.536-2.662-4.096-4.608-7.066-5.325l-10.547-2.867c-3.072-0.614-6.144-0.307-8.806 1.331-2.662 1.536-4.608 4.096-5.325 7.066l-5.325 20.685c-1.843 6.042 1.946 12.39 8.090 14.131zM112.742 668.518l178.688 47.002 12.698-48.845-178.586-46.899c0-0.102-12.8 48.742-12.8 48.742zM108.032 686.438l178.483 46.899-17.51 66.458c-5.53 21.504-27.443 34.202-48.64 28.467l-101.274-26.419c-10.24-2.867-19.046-9.421-24.371-18.637-5.325-9.114-6.758-19.968-4.096-30.208l17.408-66.56zM232.96 794.266l9.114-34.816-108.032-28.57-9.114 35.021 108.032 28.365zM99.635 382.106h-20.275l119.091-502.272v-0.614c0-21.709 115.507-39.219 257.946-39.219 134.349 0 244.838 15.565 256.922 35.533h1.229l117.965 506.573h-732.877zM276.787-78.899c-3.072-0.717-6.042-1.229-9.011-1.229-16.077 0-30.925 11.059-34.918 27.443l-79.258 312.218c-4.915 19.354 6.758 38.912 26.317 43.93 19.251 4.915 39.117-6.758 43.93-26.317l79.053-312.32c4.915-19.149-6.758-38.81-26.112-43.725z" />
<glyph unicode="&#xecda;" glyph-name="pencil-alt-1" d="M313.242 246.221l175.514 389.837c-27.443 5.734-57.958 9.728-91.648 11.571l-158.618-366.387c32.563-5.734 58.061-21.299 74.752-35.021zM774.042 736.205l-255.386 125.030c-13.517 6.656-29.389 0.922-35.328-13.005l-65.843-152.166c152.781-18.534 251.29-77.107 312.525-133.325l57.958 136.294c5.837 13.926-0.307 30.515-13.926 37.171zM707.994 507.75c-10.445 14.95-27.238 34.816-52.634 54.886l-172.544-383.078c29.901-4.915 54.374-18.33 72.294-31.949l152.883 360.141zM350.618 229.53c43.315-5.632 74.547-22.016 93.696-35.635l176.64 392.499c-24.781 14.848-55.091 28.672-91.853 39.526l-178.483-396.39zM356.045-59.546c-22.733 17.306-59.085 37.069-110.285 44.851l6.963-145.306 103.322 100.454zM533.094 112.794c-18.227 14.336-45.67 29.491-80.077 27.648l-9.83-0.512-6.656 7.475c-1.536 1.741-40.141 43.315-116.634 43.315h-10.035l-6.144 7.987c-1.331 1.638-27.341 33.485-70.246 41.984l10.24-213.504c67.072-8.499 113.664-35.226 141.926-57.754l147.456 143.36z" />
<glyph unicode="&#xecdb;" glyph-name="pencil-alt-2" d="M683.247 755.722l108.766 108.302 231.485-232.47-108.763-108.304-231.489 232.472zM658.207 730.194l232.1-231.983-527.778-526.732-231.516 231.98zM297.544-94.551l-297.544-65.449 65.564 297.428 24.92 25.503 232.1-231.977z" />
<glyph unicode="&#xecdc;" glyph-name="pencil-alt-3" d="M499.814-146.688c-58.163 56.627-116.224 113.357-174.694 169.677-7.475 7.27-10.752 14.336-10.752 24.781 0.307 148.582 0.102 297.165 0.102 445.85v20.48h394.138c0.307-3.174 0.614-5.53 0.614-7.987 0.102-154.112 0.205-308.224-0.102-462.336 0-5.632-3.482-12.39-7.475-16.691-13.926-14.746-28.877-28.57-43.315-42.701-48.23-47.104-96.358-94.31-147.354-144.282-4.71 5.53-7.578 9.728-11.162 13.21zM609.997 130.816v287.13h-96.87v-287.13h96.87zM479.13-57.6c2.867-2.662 8.090-3.994 12.288-4.198 46.49-2.253 46.387-2.15 79.974 30.413 21.402 20.787 43.008 41.472 66.56 64.205h-252.416c32.461-31.539 62.874-61.133 93.594-90.419zM315.085 793.754c0.717 38.093 38.298 70.144 78.438 70.246h234.291c46.182 0 81.92-34.918 81.818-79.77-0.102-57.549 0-114.995 0-172.544v-35.533h-394.854c0 73.626-0.922 145.613 0.307 217.6zM609.075 672.102v94.618h-96.358v-94.618h96.358z" />
<glyph unicode="&#xecdd;" glyph-name="pencil-alt-4" d="M324.608 864h216.986v-494.182h-216.986v494.182zM581.018 864h118.374v-494.182h-118.374v494.182zM557.978-29.338h-91.955l46.080-130.662 45.875 130.662zM566.579 8.755l132.813 323.072h-374.784l132.71-323.174 109.261 0.102z" />
<glyph unicode="&#xecde;" glyph-name="ruler-alt-1" d="M1024 89.946h-776.85c-0.004 44.67-0.026 89.34-0.039 134.011-0.023 71.475-0.156 142.95-0.156 214.426 0 78.285 0.106 156.57 0.148 234.854 0.029 56.162 0.041 112.323 0 168.482-0.003 2.995-0.577 5.99-0.989 9.994h-246.114v-999.291h1024v237.522zM196.671 185.412h-48.22v-47.796h47.985v-47.145c-4.229 0-7.709 0.002-11.188 0-25.778-0.010-51.558 0.15-77.332-0.243-3.303-0.051-9.304-2.829-9.4-4.58-0.774-14.147-0.434-28.347-0.434-43.477h98.299v-47.318h-47.879v-47.923h48.142v-46.913h-11.901c-40.612 0-81.224 0.002-121.836 0-13.558 0-13.552-0.005-13.544 13.402 0.074 127.338 0.18 254.676 0.208 382.013 0.036 163.090 0.010 326.178 0.010 489.267v17.928h146.895v-46.936h-47.788v-47.596h47.968v-46.858h-97.829v-48.571h97.42v-47.114h-47.78v-47.377h47.947v-47.069h-13.411c-25.429 0-50.86 0.154-76.283-0.221-2.841-0.041-7.993-2.992-8.077-4.769-0.669-14.158-0.373-28.359-0.373-43.665h98.106v-47.483h-47.621v-47.309h47.647v-46.787c-5.711 0-10.637-0.010-15.562 0.003-24.368 0.057-48.738 0.136-73.108 0.162-4.532 0.005-9.619 0.86-9.55-6.156 0.133-13.562 0.038-27.126 0.038-42.677h98.449v-46.792zM972.879-99.801h-726.257c0.225 14.677 0.406 29.354 0.43 44.032 0.057 32.847 0.061 65.695 0.072 98.544h35.877v-47.15h49.58v46.247h48.965v-94.665c15.836 0 30.831-0.317 45.77 0.425 1.753 0.086 4.522 5.982 4.57 9.216 0.369 25.19 0.17 50.391 0.201 75.586 0.003 2.99 0.332 5.98 0.543 9.523h47.886v-46.3h49.388v46.289h48.927v-94.005h50.077v94.020h48.798v-46.219h49.49v46.083h48.883v-93.942h49.963v93.972h49.355v-46.259h49.362v46.449h48.121v-141.844z" />
<glyph unicode="&#xecdf;" glyph-name="ruler-alt-2" d="M15.36-160c331.264 341.606 661.914 682.496 993.178 1024v-1024h-993.178zM484.659 39.885h330.035v340.275l-330.035-340.275zM919.347 522.291c-4.403 6.963-6.758 12.493-10.547 16.384-26.010 27.238-52.326 54.272-78.643 81.203-9.523 9.728-19.661 10.445-27.648 2.355-7.885-7.987-7.168-18.637 2.253-28.467 14.234-14.848 28.57-29.491 42.906-44.237 12.39-12.8 24.781-25.6 37.274-38.298 5.734-5.734 12.902-9.216 20.070-4.403 5.427 3.482 9.114 9.626 14.336 15.462zM442.47 246.835c-5.427-4.608-11.571-7.885-14.643-13.21-4.608-7.885-1.843-15.872 4.608-22.528l80.077-82.534c8.909-9.114 19.251-9.523 26.829-1.638 7.373 7.578 7.066 18.944-1.434 27.75-26.522 27.648-53.248 55.194-80.077 82.432-3.686 3.789-8.806 5.734-15.36 9.728zM342.426-72.141c5.12 4.506 11.366 7.782 14.336 13.107 4.301 7.475 1.843 15.36-4.301 21.709-26.931 27.648-53.76 55.501-80.794 83.149-8.499 8.704-19.661 9.011-26.829 1.331-7.066-7.475-6.963-18.432 1.229-26.931 26.931-28.16 54.067-56.115 81.408-83.866 3.379-3.482 8.499-5.018 14.95-8.499zM730.317 335.002c-0.819 1.638-1.946 6.349-4.813 9.318-27.648 28.979-55.398 57.856-83.866 86.016-3.789 3.789-11.981 5.632-17.306 4.506-13.107-2.97-17.51-19.456-7.782-29.696 27.443-29.184 55.603-57.651 83.558-86.323 1.229-1.229 2.56-2.253 3.994-3.072 12.186-6.963 26.522 2.15 26.214 19.251zM570.061 241.818c-2.662 6.042-3.482 10.547-6.042 13.312-15.36 16.486-30.925 32.87-47.002 48.64-6.963 6.861-17.203 5.939-23.757-0.512-6.861-6.656-7.987-17.818-1.126-25.293 15.258-16.589 30.822-33.075 47.309-48.23 3.891-3.584 13.107-4.096 18.33-2.048 5.12 2.048 8.294 9.318 12.288 14.131zM755.814 433.203c-2.15 5.53-2.765 9.83-5.018 12.39-16.077 17.203-32.358 34.304-49.152 50.688-6.349 6.144-16.998 4.403-22.938-1.843-6.349-6.656-7.782-16.691-1.434-23.552 15.974-17.408 32.256-34.406 49.459-50.381 3.482-3.277 12.595-3.072 17.613-0.819 4.813 2.253 7.885 9.011 11.469 13.517zM632.013 306.227c-2.97 6.042-4.096 10.752-6.963 13.824-14.95 15.974-30.208 31.846-45.773 47.206-6.758 6.656-17.408 6.246-23.962 0.102-6.963-6.451-8.397-17.92-1.536-25.293 15.258-16.691 30.822-33.178 47.411-48.435 3.891-3.584 13.312-4.198 18.534-2.048s8.294 9.523 12.288 14.643zM445.747 113.715c-1.843 5.427-2.15 9.114-3.994 11.162-16.896 17.818-33.587 35.942-51.405 52.634-6.451 6.042-15.565 3.789-21.811-3.072-6.144-6.861-7.68-15.77-1.331-22.63 15.77-17.51 32.154-34.509 49.254-50.586 3.584-3.277 12.698-3.584 17.51-1.331 5.222 2.56 8.294 9.626 11.776 13.824zM383.898 50.33c-2.458 5.632-3.174 10.138-5.734 12.902-15.667 16.691-31.437 33.28-47.718 49.254-7.066 6.963-16.998 5.53-23.654-1.434-6.042-6.246-7.373-17.101-1.434-23.654 15.77-17.101 31.744-33.997 48.742-49.664 3.789-3.482 13.107-3.584 18.33-1.331 4.915 1.843 7.782 9.011 11.469 13.926zM752.333 566.118c-5.222-4.403-11.366-7.578-14.541-12.8-4.608-7.373-2.458-15.36 3.686-21.709 14.336-14.746 28.467-29.594 43.008-44.237 8.397-8.397 18.739-8.704 26.112-1.331 7.27 7.27 7.373 18.739-0.512 27.034-14.131 14.95-28.467 29.696-43.008 44.134-3.482 3.379-8.397 5.12-14.746 8.909z" />
<glyph unicode="&#xece0;" glyph-name="ruler-compass-alt" d="M969.933 349.235s-41.062-8.294-92.467-14.746l-24.474 105.165h18.739v175.411h-64v137.83h-68.198v-138.035h-64v-175.309h18.739l-24.269-104.96c-51.507 6.451-92.467 14.541-92.467 14.541v-78.541s31.949-6.246 74.957-12.186l-74.342-321.126 21.299-4.813-6.144-28.16 13.005-2.765-2.662-11.878 7.578-1.536 2.458 11.878 15.872-3.482 6.042 27.648 23.654-5.427 77.722 331.059c12.902-0.717 25.498-1.229 37.786-1.229 11.776 0 23.654 0.512 35.84 1.126l77.824-330.957 23.45 5.325 6.554-29.594 15.77 3.482 2.56-11.878 7.475 1.536-2.662 11.878 13.005 2.97-6.554 30.003 21.402 4.813-74.445 321.024c43.008 5.939 74.957 12.39 74.957 12.39v78.541zM695.603 594.79h156.16v-135.066h-156.16v135.066zM644.096-57.19l-41.984 9.728 70.349 303.206c14.131-1.741 29.082-3.277 44.134-4.608l-72.499-308.326zM734.72 328.346c-14.848 0.922-30.003 2.355-44.646 3.891l24.883 107.315h45.978l-26.214-111.206zM774.656 327.117c-6.246 0-12.8 0.205-19.456 0.307l18.432 78.438 18.432-78.541c-5.837-0.205-11.674-0.205-17.408-0.205zM786.33 439.654h45.978l25.088-107.52c-14.746-1.536-29.901-2.97-44.749-3.891l-26.317 111.411zM945.254-47.462l-41.779-9.728-72.602 308.224c15.155 1.331 30.003 2.867 44.339 4.608l70.042-303.104zM53.248 528.947l236.442-688.947 33.69 84.173 0.205-0.205 9.728 24.474 366.797 915.558-646.861-335.053zM609.894 729.139l-9.421-23.757-44.544 17.715-6.451-16.282 44.544-17.715-7.066-17.715-30.413 11.981-6.554-16.282 30.413-12.083-9.523-24.269-44.544 17.92-6.451-16.384 44.442-17.715-6.861-17.715-30.515 12.186-6.451-16.384 30.515-11.878-8.909-22.426-44.544 17.715-6.451-16.282 44.442-17.715-6.861-17.715-30.413 11.981-6.554-16.282 30.413-12.083-9.523-24.269-44.442 17.715-6.554-16.282 44.646-17.715-7.066-17.715-30.413 12.083-6.554-16.282 30.413-12.083-8.602-21.709-0.819 0.307-4.403-12.186-33.485 13.312-6.554-16.282 35.328-14.131-7.066-17.51-21.094 8.294-6.554-16.282 21.094-8.294-9.728-24.269-35.021 14.131-6.554-16.384 35.021-13.926-7.066-17.51-20.787 8.294-6.554-16.282 20.787-8.294-9.421-23.757-39.322 15.667-6.451-16.384 39.117-15.462-7.066-17.715-24.883 10.035-6.554-16.282 24.883-9.933-9.728-24.269-38.707 15.667-6.554-16.282 38.912-15.462-6.963-17.51-24.883 9.83-6.451-16.282 24.781-9.83-8.909-22.426-38.81 15.462-6.451-16.384 38.707-15.36-7.066-17.51-24.371 9.728-6.554-16.282 24.371-9.728-9.728-24.269-38.502 15.36-6.451-16.282 38.502-15.258-7.066-17.51-24.269 9.728-6.554-16.282 24.269-9.728-20.378-50.995-200.806 584.806 545.485 282.419-20.275-50.79-26.112 10.342-6.554-16.282 26.112-10.342zM304.538 182.426l173.875 434.074-274.022-142.131 100.147-291.942zM306.893 271.411l-64.614 187.802 176.333 91.341-111.718-279.142z" />
<glyph unicode="&#xece1;" glyph-name="ruler-compass" d="M888.73 364.493s-45.056-9.523-101.888-16.691l-26.829 119.194h20.685v198.656h-70.451v156.16h-75.162v-156.16h-70.554v-198.554h20.582l-26.624-119.091c-56.627 7.168-101.888 16.486-101.888 16.486v-88.883s35.226-7.27 82.33-13.926l-81.715-363.52 23.347-5.427-6.656-31.949 14.336-3.174-2.765-13.517 8.090-1.741 2.765 13.517 17.51-3.994 6.656 31.437 25.907-6.246 85.709 375.091c14.029-0.819 28.058-1.434 41.472-1.434 12.8 0 26.112 0.41 39.322 1.229l85.606-374.886 25.907 6.246 7.168-33.69 17.306 3.891 2.97-13.312 8.090 1.741-2.765 13.517 14.234 3.277-7.168 34.202 23.552 5.632-81.715 363.418c47.206 6.758 82.432 14.131 82.432 14.131l0.205 88.371zM587.059 642.816h171.725v-152.883h-171.725v152.883zM530.227-95.795l-46.182 11.059 77.21 343.552c15.77-1.946 32.154-3.686 48.845-5.12l-79.872-349.491zM630.067 340.941c-16.486 1.126-33.075 2.56-49.152 4.301l27.341 121.856h50.688l-28.877-126.157zM673.997 339.507c-6.963 0-14.131 0.102-21.504 0.307l20.48 88.883 20.275-88.883c-6.554-0.307-13.005-0.307-19.251-0.307zM686.797 467.098h50.688l27.443-121.958c-16.282-1.741-32.768-3.174-49.357-4.301l-28.774 126.259zM861.696-84.736l-46.182-11.059-79.872 349.286c16.691 1.229 33.178 3.174 48.845 5.12l77.21-343.347zM135.68-141.261h246.886v1005.261h-246.886v-1005.261zM178.586 819.866h161.075v-53.658h-76.595v-31.949h76.595v-34.304h-49.766v-31.744h49.766v-47.411h-76.595v-31.744h76.595v-34.509h-49.766v-31.744h49.766v-46.592h-84.48v-31.846h84.378v-34.509h-57.549v-31.744h57.651v-47.309h-84.48v-31.846h84.378v-34.509h-57.549v-31.744h57.651v-43.725h-84.48v-31.949h84.378v-34.304h-57.549v-31.744h57.651v-47.411h-84.48v-31.744h84.378v-34.509h-57.549v-31.846h57.651v-42.496h-161.075v916.89z" />
<glyph unicode="&#xece2;" glyph-name="ruler-pencil-alt-1" d="M167.424 857.958c15.258 0.307 30.618 0.717 45.875 0.717 99.328 0.102 198.656-0.102 297.984 0.205 8.909 0 11.776-2.048 11.776-11.571-0.307-331.674-0.205-663.245-0.205-994.918v-11.981h-343.552c-3.994 0-7.987-0.307-11.981-0.41l0.102 1017.958zM491.52-127.642v11.162c0 310.579 0 621.261 0.205 931.84 0 9.83-2.867 12.288-12.39 12.186-90.010-0.307-180.019-0.205-269.926-0.307-3.174 0-6.451-0.307-9.626-0.512v-37.683h151.142v-21.094h-150.938v-57.549h86.528v-21.299h-86.733v-57.549h86.733v-21.402h-86.733v-56.934h150.835v-21.402h-150.733v-57.139h86.426v-21.504h-86.63v-57.139h86.938v-21.504h-86.835v-57.037h150.938v-21.402h-150.835v-57.139h86.426v-21.504h-86.63v-57.242h86.938v-21.606h-86.733v-57.037h150.733v-21.504h-150.938v-56.73h86.63v-21.811h-86.63v-57.242h86.835v-21.197h-86.63v-30.618l291.635-0.102zM819.405 864c36.25-13.21 36.557-13.619 36.557-53.043 0-37.99-0.102-75.878 0.102-113.869 0-7.066-1.741-10.035-9.421-10.035-85.197 0.205-170.394 0-255.693 0-1.331 0-2.56 0.41-5.427 0.819v10.445c0 39.629 0.922 79.258-0.307 118.886-0.717 23.654 6.349 40.141 30.208 46.797h203.981zM781.824 108.186h-121.651v564.941h121.549v-564.941zM855.757 83.098c-2.253-4.096-3.891-7.27-5.734-10.342-21.709-36.659-43.52-73.216-65.126-109.875-2.867-4.915-5.325-6.656-11.674-5.427-36.762 7.168-73.421 6.144-110.285-3.482-25.498 42.803-50.688 85.299-76.698 129.024h269.517zM586.342 673.434h37.478v-565.658h-37.478v565.658zM818.074 673.126h37.581c0.205-4.71 0.512-9.011 0.512-13.21 0-179.814 0-359.731 0.205-539.546 0-9.933-2.355-13.926-12.8-12.698-8.192 0.922-16.486 0.205-25.6 0.205l0.102 565.248zM775.987-64.973c-18.33-30.925-35.84-60.314-54.477-91.75-18.125 30.413-35.43 59.392-53.35 89.6 36.25 9.421 71.066 9.114 107.827 2.15z" />
<glyph unicode="&#xece3;" glyph-name="ruler-pencil-alt-2" d="M380.109 846.797h244.838v-992.461h-244.838v992.461zM594.432 349.747c-0.102 53.043-0.102 106.086-0.102 159.027 0 98.304 0 196.506 0.102 294.81 0 7.373-1.024 11.674-9.83 11.571-54.989-0.307-109.978-0.307-165.069-0.102-6.554 0-8.909-2.15-8.806-8.909 0.307-18.125 0.41-36.352-0.205-54.477-0.307-8.909 2.56-11.469 11.059-11.366 18.432 0.41 18.33 0 20.89 18.33 0.307 2.253 2.765 4.096 4.198 6.144 1.741-2.15 4.096-3.994 5.12-6.349 0.819-1.843 0.41-4.403 0.102-6.554-1.126-8.704 2.048-11.674 10.854-11.469 21.299 0.614 42.701 0.41 64.102 0.102 10.854-0.205 18.022-7.578 17.613-16.896-0.41-8.909-7.475-15.155-18.022-15.258-14.131-0.205-28.262-0.205-42.394-0.102-34.509 0.41-34.406 0.512-32.154-35.021 0.41-6.042 2.15-8.806 8.294-8.499 6.451 0.307 13.005 0 19.558 0.102 5.837 0.102 11.776-0.717 11.981-7.987 0.205-7.168-5.325-8.806-11.366-8.704-6.554 0.102-13.005-0.205-19.558 0.102-6.349 0.307-9.216-1.843-9.011-8.806 0.41-11.469 0.41-23.040 0-34.509-0.307-7.68 2.97-9.523 9.728-9.216 7.578 0.41 15.258 0.614 22.733-0.512 2.867-0.41 7.168-4.915 7.168-7.68 0-2.662-4.096-6.349-7.168-7.782s-7.066-0.512-10.752-0.512c-21.709 0-21.811 0-21.606-22.528 0.102-9.523-2.15-21.914 2.662-27.546 4.096-4.813 16.896-2.048 25.805-2.15 6.144-0.102 11.981-1.843 10.854-8.704-0.512-3.174-6.554-6.861-10.65-7.68-9.216-1.946-22.835 1.229-27.034-4.096-4.813-6.144-1.126-19.149-1.843-29.082-0.614-8.294 2.253-11.059 10.445-10.854 20.992 0.512 41.984 0.307 62.976 0.102 11.878-0.102 19.354-6.758 19.149-16.282-0.307-9.626-7.885-15.872-19.763-15.872-17.715-0.102-35.43 0.205-53.248 0.102-22.426-0.205-19.354 3.072-19.456-20.070-0.102-23.347 0.102-23.347 22.938-23.347 6.861 0 16.691 2.56 16.691-8.397 0-10.138-9.523-7.987-16.077-8.090-23.245-0.512-23.245-0.41-23.552-23.757-0.307-28.16-0.307-28.16 26.522-28.57 1.126 0 2.458 0.41 3.174-0.102 3.584-2.765 6.963-5.734 10.342-8.704-3.379-2.56-6.554-6.861-10.24-7.475-7.373-1.229-15.258 0.205-22.733-0.717-2.56-0.307-6.656-4.403-6.758-6.963-0.717-12.595-0.717-25.19 0-37.786 0.102-2.56 4.198-6.656 6.758-6.963 7.885-0.922 15.974 0.41 23.757-0.717 3.277-0.512 6.042-4.915 9.114-7.475-3.072-2.867-5.837-7.578-9.318-8.294-6.963-1.331-14.438-0.922-21.606-0.512-6.349 0.307-9.421-1.434-9.011-8.602 0.512-8.090 0.512-16.384-0.102-24.474-0.717-8.704 2.867-10.547 10.752-10.445 20.582 0.512 41.267 0.205 61.85 0 12.288-0.102 19.661-6.042 19.866-15.565 0.205-10.035-7.27-16.486-20.070-16.691-13.414-0.205-26.829 0.205-40.141-0.102-10.342-0.205-25.395 2.765-29.798-2.765-5.427-6.861-1.843-21.094-2.458-32.051-0.307-6.144 1.946-8.806 8.090-8.602 7.578 0.307 15.36 1.024 22.733-0.307 3.482-0.614 6.144-5.53 9.216-8.499-3.072-2.56-5.837-6.758-9.216-7.27-7.475-1.229-15.155-0.717-22.733-0.512-5.222 0.102-8.090-1.331-7.987-7.475 0.205-12.186-0.512-24.474 0.307-36.659 0.205-2.867 4.403-7.168 7.27-7.68 7.475-1.126 15.258 0.41 22.733-0.922 3.584-0.614 6.554-5.12 9.83-7.885-3.277-2.765-6.246-7.27-9.933-7.987-6.656-1.331-13.722-0.717-20.582-0.205-7.782 0.614-9.933-2.662-9.83-10.24 0.307-41.574 0.41-83.046-0.102-124.621-0.102-8.909 2.662-11.366 11.162-11.264 39.117 0.41 78.234 0.102 117.248 0.102 14.131 0 14.131 0 14.131 14.541 0.41 149.606 0.41 299.418 0.41 449.229zM442.266-41.318c0.102 17.101 0.307 34.099 0 51.2-0.41 23.859 5.018 21.197-21.197 22.016-8.192 0.205-10.547-2.56-10.445-10.854 0.41-37.478 0.102-74.854 0.205-112.333 0.102-28.262-2.97-21.709 22.221-22.938 7.066-0.307 9.523 2.253 9.421 9.523-0.41 21.094-0.205 42.189-0.205 63.386zM442.368 553.011c-1.024 30.822 5.427 25.395-23.45 26.214-6.144 0.205-8.397-2.355-8.192-8.499 0.307-10.035 0.922-20.070 0-30.003-1.126-11.366 2.56-14.848 13.722-14.234 20.070 1.024 17.818-1.741 17.92 18.739v7.782zM442.266 621.107c0.102 6.656 0.512 13.414-0.205 19.968-0.205 2.458-3.072 6.246-5.018 6.554-6.758 0.819-13.722 0.819-20.582 0.102-2.048-0.205-5.325-3.891-5.427-6.144-0.512-13.005-0.614-26.010 0-38.912 0.102-2.355 3.686-6.349 6.042-6.656 23.654-3.482 24.781-2.253 25.088 21.709 0.102 1.229 0.102 2.253 0.102 3.379zM442.163 347.699c0.102 28.16 0.102 27.955-23.859 26.726-5.632-0.307-7.68-2.253-7.578-7.987 0.205-11.469 0.41-23.040-0.102-34.406-0.41-7.987 2.765-10.138 10.035-10.035 25.907 0.205 21.299-2.56 21.504 21.299 0.102 1.434 0.102 2.97 0 4.403zM410.726 279.808c0.307-28.774 0.307-28.774 23.654-26.726 0.41 0 0.819-0.102 1.024 0.102 2.253 2.15 6.246 4.198 6.349 6.554 0.614 12.902 0.614 25.907 0 38.81-0.102 2.355-3.789 6.144-6.246 6.554-23.347 3.686-24.986 2.048-24.883-21.914 0.102-1.126 0.102-2.253 0.102-3.379zM410.726 74.291c0-27.648 0-27.443 23.654-26.214 6.246 0.307 8.192 2.765 7.987 8.704-0.307 11.469-0.41 22.938 0 34.406 0.307 7.27-2.458 9.728-9.421 9.523-26.726-0.819-21.402 2.765-22.221-22.016v-4.403zM410.829 488.806c0-27.034-2.765-21.504 21.811-22.016h2.15c5.734-0.614 7.68 2.253 7.475 7.885-0.205 8.499-0.41 17.101 0.102 25.6 0.512 7.987-2.56 10.138-10.035 10.035-21.197-0.307-21.197 0-21.504-21.504zM442.368 413.030c-0.614 23.45 4.506 21.197-21.606 21.402-0.717 0-1.434-0.102-2.15 0-5.325 0.41-7.987-1.741-7.885-7.578 0.307-9.626-0.307-19.251 0.41-28.774 0.205-2.458 3.584-6.349 5.939-6.758 23.040-3.891 25.293-1.741 25.293 21.709zM410.726 686.541c0-21.709 0-21.811 12.595-21.709 21.811 0.205 18.739-2.662 19.046 19.456 0.102 5.939 0.41 11.878-0.41 17.715-0.307 2.355-3.379 5.53-5.632 6.042-22.733 4.096-25.6 1.434-25.6-21.504zM410.726 215.398c0.614-26.726-4.301-21.504 22.63-22.63 7.373-0.307 9.421 2.867 9.114 9.83-0.41 7.782-0.614 15.565 0 23.347 0.717 8.602-2.867 10.854-10.752 10.547-25.19-1.024-20.070 3.072-20.992-21.094zM410.726 139.213c0-3.686 0.307-7.475-0.102-11.059-0.819-7.885 1.536-11.366 10.035-11.059 25.6 1.024 20.787-2.765 21.504 21.709 0.205 5.222 0.41 10.445-0.205 15.462-0.307 2.253-2.56 5.427-4.506 5.939-20.378 5.632-26.624 0.512-26.726-20.992zM85.914 615.168h181.555v-45.773c0-162.406 0.102-324.813-0.205-487.117 0-9.728-2.15-20.070-5.632-29.082-22.733-59.187-46.182-118.067-69.427-177.050-0.41-1.024-0.819-2.048-1.331-3.072-3.379-6.963-6.656-16.384-15.36-14.336-5.734 1.331-12.083 8.090-14.541 14.029-16.486 39.834-31.949 80.077-47.821 120.218-2.662 6.861-4.813 14.029-8.192 20.582-16.896 32.256-19.661 66.867-19.456 103.014 0.922 161.997 0.41 323.994 0.41 485.99v12.595zM121.754 343.706c0-67.482 0-134.861 0.102-202.342 0-5.53 0.205-11.162 1.536-16.486 2.253-8.806 8.602-14.029 17.306-14.131s15.053 5.12 17.613 13.824c1.126 3.789 1.536 7.987 1.536 12.083 0 138.65 0 277.197-0.102 415.846 0 3.686-0.307 7.475-1.331 10.957-2.662 9.216-9.011 14.336-18.432 13.926-8.909-0.41-14.95-5.837-16.691-14.746-1.229-6.451-1.331-13.21-1.331-19.866-0.205-66.458-0.205-132.813-0.205-199.066zM121.242 73.37c9.421-23.962 18.125-46.080 27.034-68.301 9.421-23.552 9.523-23.245 34.202-23.757 7.987-0.205 12.288 2.048 15.258 10.138 8.806 23.859 18.534 47.309 27.853 71.066 1.229 3.277 2.048 6.656 3.277 10.957l-107.622-0.102zM937.37 321.28c0-98.611-0.205-197.222 0.205-295.834 0-10.854-3.686-12.8-13.107-12.698-36.557 0.41-73.114 0.307-109.67-0.102-8.090-0.102-10.65 2.458-10.65 10.752 0.205 70.042 0 140.083 0 210.125 0 38.195 0.41 76.39 0 114.483-0.205 22.528-8.704 40.755-28.57 52.634-2.97 1.843-5.939 6.758-6.042 10.24-0.307 70.042-0.102 140.083-0.205 210.125 0 6.963 2.765 8.909 9.114 8.909 50.278-0.102 100.557-0.102 150.835 0.205 7.578 0 7.885-3.994 7.885-9.728 0-57.037 0-114.176 0.102-171.213v-127.898h0.102zM938.701-27.392v-29.901c0-21.914 0.307-43.725 0.102-65.638-0.205-23.757-12.493-36.659-35.533-36.864-32.973-0.307-65.843-0.307-98.816 0.102-24.371 0.307-36.147 13.005-36.352 38.298-0.102 15.565-0.205 31.13 0.102 46.694 0.102 6.246-2.048 9.011-8.192 8.397-1.843-0.205-3.584 0-5.427 0-15.258 0.41-20.89 6.042-20.992 21.606-0.205 35.635-0.205 71.168-0.205 106.803 0 93.798 0.102 187.597 0.102 281.498 0 2.253 0 4.506 0.102 6.656 0.717 11.469 6.861 18.125 16.486 18.022 9.523-0.102 16.589-6.963 16.794-17.92 0.41-24.474 0.307-48.947 0.307-73.421l-0.102-284.774c0-17.408 2.253-19.558 19.661-19.558h151.962zM938.803 666.573h-170.701c1.536 5.222 2.458 9.523 3.891 13.517 20.787 54.886 41.472 109.67 62.464 164.454 3.174 8.397 5.427 19.456 16.589 19.456 10.547 0.102 12.902-10.547 16.179-18.534 22.733-54.784 45.363-109.67 67.891-164.557 1.741-4.198 2.355-8.909 3.686-14.336zM176.128 656.128c-26.419 0-52.838 0.205-79.258-0.102-7.066-0.102-9.728 2.048-9.523 9.421 0.41 19.251-0.102 38.605 0.205 57.856 0.41 18.33 14.848 33.28 32.666 33.485 37.274 0.41 74.547 0.512 111.821 0.205 18.33-0.102 33.587-16.179 33.894-35.123l0.205-56.73c0.102-6.758-1.843-9.114-8.602-9.011-27.136 0.205-54.272 0-81.408 0z" />
<glyph unicode="&#xece4;" glyph-name="ruler-pencil" d="M97.278 628.488c4.966-4.567 4.827-9.114 0.186-13.67-4.836-4.751-9.787-9.378-13.885-13.292 10.437-10.522 19.18-19.341 29.256-29.501 4.874 5.921 9.213 11.325 13.701 16.597 4.243 4.987 8.545 3.62 12.775-0.17 4.467-4.004 5.386-8.438 0.907-12.856-5.13-5.059-10.607-9.755-15.682-14.385 10.933-10.678 19.848-19.384 29.768-29.071 4.864 5.624 9.288 10.96 13.95 16.077 4.573 5.018 9.228 4.019 13.652-0.395 4.4-4.39 4.065-8.779-0.22-12.97-4.895-4.792-9.892-9.48-15.099-14.459 10.786-10.24 19.832-18.824 29.987-28.465l13.003 15.288c4.173 4.9 8.761 5.584 13.609 1.098 4.839-4.475 4.747-9.185 0.102-13.763-4.833-4.762-9.745-9.441-13.785-13.348 10.38-10.309 19.208-19.075 29.877-29.672 3.007 4.152 5.612 8.433 8.884 12.101 4.465 5.011 8.757 12.216 16.77 4.731 8.511-7.951 1.262-12.967-3.631-17.975-3.441-3.518-7.644-6.27-11.748-9.559 11.381-10.655 20.505-19.195 31.465-29.46 3.963 5.104 7.931 10.397 12.099 15.522 4.311 5.298 9.011 6.168 14.22 0.987 4.841-4.818 4.205-9.395-0.362-13.747-4.749-4.522-9.7-8.827-14.33-13.015 8.481-8.415 15.165-15.043 20.319-20.152 53.097 57.139 106.053 114.128 159.184 171.301 0.161-0.172-0.676 0.852-1.623 1.756-72.887 69.706-145.82 139.363-218.662 209.118-30.542 29.25-60.894 58.703-91.333 88.061l-1.969-0.057c-6.339-7.103-12.564-14.318-19.036-21.293-44.16-47.584-88.351-95.141-132.572-142.668-2.217-2.383-4.696-4.516-7.055-6.764l0.061-1.999c9.165-8.36 18.333-16.72 28.793-26.262 4.145 5.105 7.85 9.759 11.66 14.323 4.244 5.091 8.602 8.093 14.812 2.241 6.001-5.658 4.338-10.309-0.764-15.071-4.526-4.229-9.055-8.458-13.208-12.339 10.5-10.575 19.288-19.432 29.037-29.257 4.782 5.585 9.101 10.572 13.357 15.618 4.256 5.043 8.663 5.294 13.531 0.819zM702.372 331.594c-1.624-1.536-3.098-2.78-4.408-4.188-43.702-46.983-87.523-93.856-130.961-141.096-7.878-8.565-14.176-18.627-20.854-27.532 8.94-9.007 17.707-17.84 27.313-27.515 4.864 5.571 9.189 10.545 13.544 15.493 4.263 4.844 8.892 5.478 13.568 0.74 4.462-4.52 4.749-9.294-0.002-13.899-4.857-4.712-9.755-9.38-13.875-13.336 10.877-10.95 20.107-20.232 30.407-30.596 4.673 5.573 8.86 10.691 13.182 15.688 4.212 4.879 8.628 5.372 13.52 0.68 4.751-4.549 5.171-8.986 0.438-13.667-4.862-4.808-9.783-9.548-15.002-14.633 10.707-10.236 19.742-18.873 30.255-28.929 4.659 5.714 8.915 11.141 13.396 16.374 4.409 5.151 9.052 4.395 13.612 0.043 4.51-4.301 4.27-8.688 0.123-12.995-4.744-4.943-9.605-9.772-14.403-14.633 10.063-9.773 18.967-18.422 29.686-28.831 4.421 5.644 8.42 10.875 12.551 15.992 4.181 5.174 8.806 5.087 13.588 0.813 4.973-4.434 4.989-9.206 0.366-13.732-4.905-4.811-10.131-9.284-14.922-13.633 10.749-10.533 19.655-19.261 30.439-29.829 4.605 5.876 8.765 11.424 13.179 16.753 4.46 5.379 9.054 4.098 13.512-0.203 4.499-4.338 4.244-8.61-0.065-12.896-4.871-4.844-9.712-9.721-14.746-14.762 10.732-10.203 20.204-19.21 31.271-29.732 4.538 5.499 8.817 10.908 13.336 16.1 3.965 4.547 8.317 4.735 12.818 0.537 4.777-4.448 5.245-9.134 0.543-13.761-4.922-4.839-10.121-9.384-14.469-13.382 10.189-9.598 20.375-19.198 30.558-28.8 3.363 3.963 7.203 8.471 11.022 12.995 4.242 5.028 8.554 8.346 14.766 2.447 5.919-5.622 4.276-10.476-0.854-15.16-4.623-4.223-9.413-8.257-14.227-12.459 9.622-9.281 17.206-16.593 24.111-23.257 53.268 57.274 106.336 114.328 159.309 171.284-106.642 101.966-213.7 204.325-321.626 307.517zM928 723.464l1.393 1.499-77.471 81.401c-1.779-1.641-3.052-2.738-4.191-3.963-197.265-212.399-394.526-424.795-591.653-637.32-3.031-3.402-4.818-9.283-4.807-14.049 0.161-18.665 1.229-37.306 2.043-55.951 0.271-4.762 0.806-9.646 1.221-14.797 23.214 0.686 45.122 1.599 67.177 1.851 7.834-0.033 13.237 2.642 18.684 8.366 195.729 211.159 391.6 421.924 587.6 632.961zM949.563 657.024c0.473 12.906-0.443 25.871-0.904 41.521-3.746-3.753-5.392-5.302-6.93-6.957-197.706-212.904-395.394-425.815-593.074-638.739-1.79-1.927-4.318-3.84-4.857-6.16-4.4-18.887-8.41-37.868-12.542-56.816 4.116 1.488 6.475 3.674 8.663 6.024 37.399 40.233 74.787 80.476 112.166 120.728 163.717 176.271 327.442 352.532 491.057 528.901 2.939 3.167 6.273 7.563 6.418 11.5zM162.294 157.928c16.427 3.625 30.367 5.949 43.807 9.976 6.775 2.030 13.95 5.905 18.743 11.056 195.471 210.016 390.69 420.271 585.98 630.46 2.243 2.417 4.997 4.347 7.512 6.502l-1.516 2.902c-11.369-0.333-22.801-0.082-34.085-1.276-4.958-0.522-10.916-2.734-14.223-6.282-199.981-214.859-399.734-429.94-599.491-645.012-1.825-1.966-3.389-4.175-6.728-8.325zM129.661-12.837c18.399 51.288 36.534 101.855 55.325 154.243-11.067-2.548-19.553-5.091-28.221-6.294-5.903-0.819-8.315-3.702-10.015-9.001-23.992-74.876-48.189-149.684-72.052-224.6-1.256-3.946-1.546-11.121 0.551-12.572 3.164-2.185 9.342-2.028 13.353-0.492 71.383 27.346 142.641 55.024 213.869 82.784 2.392 0.93 5.564 3.161 6.007 5.294 2.202 10.565 3.604 21.299 5.502 33.298-48.652-20.828-95.67-40.96-143.664-61.507-6.854 20.101-20.726 32.348-40.653 38.847z" />
<glyph unicode="&#xece5;" glyph-name="ruler" d="M820.449 858.368l-820.449-805.036 203.551-207.405 820.449 805.038-203.551 207.403zM882.848 583.255l-28.099-27.535-40.925 41.631-26.030-25.513 40.926-41.63-38.577-37.825-63.103 64.232-25.891-25.515 62.963-64.232-28.099-27.723-40.927 41.866-25.887-25.513 40.737-41.867-37.779-37.073-69.778 70.858-26.030-25.515 69.729-70.857-28.097-27.723-47.505 48.49-26.078-25.513 47.551-48.492-38.577-37.779-69.73 70.999-25.887-25.515 69.585-70.996-28.095-27.535-47.551 48.442-25.891-25.513 47.551-48.445-35.804-35.052-69.544 70.998-26.076-25.514 69.777-70.999-28.099-27.535-47.551 48.445-26.034-25.513 47.507-48.445-38.533-37.825-69.729 70.857-25.89-25.326 69.54-71.045-28.049-27.724-47.555 48.633-25.889-25.513 47.553-48.633-34.865-33.925-132.553 135.279 748.324 734.321 132.693-135.23-43.839-42.947-62.964 64.231-26.078-25.514 63.15-64.236z" />
<glyph unicode="&#xece6;" glyph-name="rulers-alt" d="M0 51.999c2.138 4.068 3.884 8.409 6.496 12.145 5.069 7.25 12.148 11.049 21.224 10.996 16.992-0.097 33.987 0.184 50.975-0.121 6.543-0.117 9.527 1.843 10.158 8.825 8.412 93.258 48.052 171.217 115.986 235.128 53.117 49.971 115.96 81.215 187.601 93.239 85.972 14.428 167.449-0.174 243.061-44.060 85.159-49.427 140.734-122.558 169.143-216.24 6.502-21.443 9.117-44.143 12.452-66.423 1.191-7.953 3.558-10.846 11.684-10.535 14.971 0.573 30.058-0.816 44.954 0.387 23.257 1.88 29.18-13.388 29.342-29.966 0.399-40.643 0.13-81.292 0.113-121.938-0.007-16.992-0.471-33.997 0.035-50.972 0.451-15.196-2.355-27.825-19.226-32.465h-861.997c-9.153 3.775-17.405 8.653-22 17.999v194.001zM643.702-112.241h53.088c0 11.536-0.273 22.448 0.069 33.341 0.415 13.212 13.025 21.471 22.402 14.090 4.211-3.313 6.868-10.385 7.514-16.060 1.178-10.361 0.335-20.951 0.335-31.082h129.001v140.8c-3.036 0.135-5.306 0.279-7.578 0.328-18.268 0.406-36.577 0.2-54.794 1.382-13.22 0.856-18.483 7.238-19.528 20.656-0.696 8.96-0.696 17.99-1.707 26.908-1.478 13.036-3.586 25.999-5.399 38.806-12.329 0.584-26.314-9.578-31.706 5.996-6.463 18.668 11.612 19.266 23.691 24.158-4.649 11.994-8.702 22.83-13.040 33.552-6.229 15.396-6.318 15.36-21.033 8.448-7.703-3.618-15.174-1.292-19.517 6.113-4.542 7.743-2.481 14.021 4.497 18.972 3.992 2.833 8.202 5.359 13.74 8.948-11.037 14.43-21.426 28.010-32.713 42.766-7.725-7.584-14.076-13.832-20.443-20.064-10.215-9.999-16.668-11.039-23.873-3.866-6.646 6.617-5.711 15.59 3.445 24.125 6.519 6.076 13.88 11.251 20.865 16.828l-1.997 4.694c-13.696 10.612-27.392 21.223-41.314 32.010-8.735-9.498-12.068-26.935-27.89-18.084-16.212 9.066-3.024 21.33 0.651 33.577-11.534 4.918-22.651 9.933-33.979 14.42-14.152 5.607-14.227 5.42-19.76-8.841-3.258-8.399-10.049-11.947-18.34-9.581-7.676 2.191-11.448 9.628-9.153 18.369 1.061 4.041 2.432 8.002 4.355 14.249-17.132 2.169-32.748 4.294-48.42 5.816-1.129 0.111-3.707-4.103-3.853-6.418-0.486-7.635-0.082-15.322-0.172-22.987-0.121-10.431-5.421-16.894-14.033-17.332-9.103-0.463-15.639 5.904-16.165 16.466-0.397 7.98-0.205 15.998-0.023 23.992 0.115 5.074-1.751 7.475-7.078 6.849-10.875-1.283-21.818-2.083-32.645-3.686-14.213-2.105-14.177-2.355-12.155-16.605 1.864-13.128-4.035-20.116-15.976-19.029-9.731 0.885-11.891 8.414-13.957 15.907-1.157 4.2-1.507 9.713-7.83 7.306-14.782-5.631-29.329-11.867-44.797-18.195 3.223-6.619 5.942-11.184 7.718-16.090 2.662-7.361 1.217-13.768-6.021-18.076-7.301-4.344-13.417-2.422-18.48 3.693-2.099 2.536-3.781 5.499-5.231 8.472-2.506 5.14-5.72 5.964-10.242 2.483-10.287-7.92-20.529-15.903-30.976-23.608-5.571-4.109-5.021-7.593-0.305-11.983 6.335-5.898 12.564-11.963 18.301-18.434 8.018-9.047 4.53-21.893-7.214-23.896-4.731-0.807-11.194 2.685-15.423 6.042-7.908 6.277-14.761 13.885-23.306 22.149-11.479-15.096-21.953-28.867-32.696-42.996 11.272-8.194 27.756-12.268 18.811-28.516-9.793-17.79-21.711-0.983-34.475 0.94-6.784-16.159-13.568-32.317-20.354-48.474 7.704-2.55 13.492-3.959 18.84-6.351 8.24-3.686 9.484-10.908 6.92-18.527-2.464-7.319-8.267-9.938-15.923-8.366-5.381 1.103-10.803 2.001-18.455 3.403-2.154-22.511-4.346-43.571-6.13-64.665-1.372-16.227-7.365-22.426-23.97-22.791-15.292-0.336-30.6-0.332-45.894-0.058-7.725 0.138-11.164-1.979-11.071-10.714 0.44-40.991 0.181-81.992 0.23-122.989 0.003-2.861 0.478-5.721 0.723-8.46h128.942c0 11.832-0.238 22.792 0.063 33.737 0.328 11.966 9.832 18.855 20.34 14.881 7.654-2.895 9.88-9.386 9.943-16.871 0.089-10.534 0.020-21.069 0.020-31.801h52.959c2.248 11.824-3.383 28.452 15.478 28.938 20.78 0.532 13.148-18.051 16.479-28.972h56.102c1.902 11.715-3.308 27.676 14.373 28.945 21.41 1.536 14.182-17.746 17.705-28.89h56.633c0 10.796-0.099 20.751 0.024 30.703 0.151 12.281 5.069 18.352 14.738 18.528 10.506 0.191 15.284-5.505 15.418-18.659 0.102-10.189 0.020-20.381 0.020-30.62h52.989c2.666 11.315-4.204 27.846 14.062 28.995 20.925 1.316 15.684-16.761 17.729-29.133h56.139c2.635 12.012-3.506 30.032 17.132 29.039 18.11-0.87 12.772-16.824 14.553-29.049zM1024-54c-3.846-10.332-11.62-12.81-21.985-12.386-15.907 0.649-31.861 0.171-49.052 0.171 0 8.431-0.537 16.349 0.367 24.1 0.236 2.009 4.899 4.819 7.662 4.981 10.193 0.597 20.442 0.236 31.273 0.236v91.023c-9.333 0-18.207 0.179-27.073-0.061-6.451-0.174-9.699 2.237-10.561 8.98-0.786 6.161-2.935 12.147-4.837 19.593h42.809c0 19.184 0.197 37.026-0.33 54.847-0.049 1.653-4.59 4.26-7.24 4.533-6.597 0.678-13.312 0.454-19.97 0.243-9.155-0.29-13.554 4.428-14.182 13.070-0.618 8.535 4.69 15.129 13.213 15.622 8.923 0.516 17.9 0.115 28.631 0.115 0 18.821 0.199 36.652-0.323 54.462-0.049 1.676-4.526 4.36-7.127 4.6-6.601 0.609-13.315-0.164-19.965 0.090-9.703 0.369-14.381 5.128-14.481 14.1-0.105 9.413 4.844 14.442 14.884 14.76 6.663 0.215 13.33 0.225 19.994 0.031 4.962-0.147 7.291 1.577 7.222 6.881-0.195 14.993-0.249 29.993 0.031 44.984 0.125 6.748-3.754 7.537-8.952 7.526-13.326-0.035-26.653-0.041-39.977 0.106-9.832 0.109-16.364 5.475-16.685 13.378-0.323 7.936 7.025 14.873 16.707 15.073 13.326 0.28 26.658 0.28 39.984 0 6.078-0.13 9.187 1.272 8.98 8.245-0.43 14.316-0.321 28.659-0.041 42.983 0.117 6.101-2.241 8.319-8.233 8.105-6.984-0.251-13.998 0.031-20.985 0.343-8.27 0.369-12.987 4.567-12.998 13.161-0.010 8.527 3.951 14.281 12.649 15.075 7.602 0.694 15.368-0.301 22.943 0.53 2.369 0.26 6.141 3.968 6.221 6.207 0.547 15.309 0.559 30.659-0.020 45.965-0.086 2.311-3.914 6.045-6.4 6.4-6.871 0.983-13.95 0.442-20.941 0.655-10.268 0.315-14.36 4.284-14.377 13.722-0.020 9.267 5.166 14.435 14.978 14.684 6.661 0.171 13.332 0.289 19.988 0.072 5.1-0.169 7.186 1.764 7.107 6.984-0.225 14.994-0.273 29.993-0.078 44.986 0.076 5.718-2.465 7.604-7.809 7.557-13.66-0.123-27.323-0.123-40.98 0.065-9.818 0.135-16.786 5.822-16.919 13.347-0.145 8.212 6.769 14.828 16.722 15.086 13.319 0.344 26.66 0.369 39.979 0.013 7.018-0.187 9.279 2.545 9.095 9.384-0.377 13.985-0.307 27.994 0.028 41.982 0.146 6.106-2.152 8.463-8.134 8.192-6.653-0.303-13.335-0.414-19.988-0.16-9.182 0.35-14 5.583-14.002 14.602-0.002 9.368 4.352 13.722 14.175 13.926 6.662 0.139 13.332 0.195 19.993 0.031 5.222-0.129 7.985 1.497 7.949 7.367-0.197 31.988-0.146 63.98-0.236 95.969 0 0.874-0.617 1.748-1.776 4.823-85.388-92.854-169.938-184.796-254.488-276.739l-1.452 0.753c4.997 17.703 9.871 35.443 15.112 53.074 0.901 3.025 2.992 5.935 5.174 8.308 79.152 86.102 158.359 172.157 237.613 258.165 13.746 14.918 19.18 14.661 31.112-0.919v-904.001zM640 864c9.539-4.718 12.943-13.165 15.122-23.001 14.577-65.761 29.115-131.536 44.472-197.117 3.591-15.34-0.691-29.022-4.385-43.014-15.092-57.155-30.556-114.208-45.929-171.288-0.847-3.144-2.087-6.183-3.556-10.476-7.926 3.751-15.688 6.697-22.497 11.113-1.901 1.234-2.043 7.092-1.192 10.36 8.955 34.38 18.264 68.667 27.498 102.973 6.989 25.966 15.288 51.674 20.423 77.998 2.202 11.292-1.236 24.048-3.689 35.809-5.96 28.584-13.025 56.936-19.247 85.468-1.797 8.241-5.032 13.206-14.184 14.94-13.008 2.468-25.559 7.332-38.559 9.868-4.256 0.829-10.819-0.952-13.754-4.010-26.079-27.156-51.739-54.727-77.083-82.573-3.799-4.174-6.257-10.163-7.762-15.739-17.232-63.791-34.314-127.625-50.975-191.57-2.212-8.489-7.461-8.753-14.041-8.874-19.643-0.362-19.309-0.516-14.1 18.589 18.084 66.307 35.856 132.698 53.967 198.997 1.265 4.628 3.474 9.551 6.672 13.021 49.462 53.656 99.137 107.117 148.863 160.528 2.867 3.080 6.605 5.351 9.935 7.999h4.002zM846.165 437.053c-30.375-33.29-60.751-66.58-90.514-99.197-6.84 6.56-13.412 12.861-20.699 19.849 1.386 1.677 3.33 4.26 5.511 6.625 36.813 39.905 73.487 79.941 110.732 119.439 4.133 4.383 11.989 8.526 17.357 7.718 8.428-1.268 10.529-10.035 10.537-18.196 0.059-55.628 0.111-111.256 0.113-166.883 0-57.626-0.043-115.251-0.119-172.878-0.008-5.11 1.511-10.805-7.081-11.404-7.758-0.541-9.834 3.366-10.713 9.705-0.499 3.604-0.886 7.424-2.388 10.65-14.244 30.621-9.791 63.207-9.966 95.212-0.341 62.621-0.072 125.245-0.057 187.868 0 3.487 0 6.973 0 10.461l-2.714 1.034zM515.499 461.232c-8.773 1.243-17.564 2.488-27.040 3.832 0.186 2.967-0.079 5.605 0.563 8.001 14.278 53.241 28.631 106.461 43.059 159.662 2.929 10.795 9.656 14.973 19.034 12.319 7.565-2.14 11.957-10.312 9.544-19.372-14.367-53.9-28.928-107.747-43.462-161.601-0.242-0.898-0.976-1.662-1.696-2.843zM577.85 447.205c-8.769 2.391-17.308 4.721-26.782 7.305 5.079 19.311 9.984 38.085 14.961 56.838 9.011 33.956 18.067 67.899 27.116 101.845 0.256 0.961 0.663 1.88 0.946 2.836 3.035 10.236 9.619 15.005 17.93 12.971 8.095-1.982 13.265-10.381 10.791-19.638-14.121-52.825-28.551-105.57-42.921-158.33-0.328-1.201-1.188-2.258-2.041-3.827zM378.481 29.223c-30.228 0-60.459-0.195-90.685 0.079-16.005 0.145-25.59 10.514-25.395 25.311 1.092 83 58.657 165.941 157.468 183.564 98.567 17.582 193.935-43.315 217.958-141.292 3.594-14.662 4.319-30.149 5.168-45.322 0.666-11.914-7.315-20.408-19.338-20.967-20.565-0.956-41.174-1.156-61.77-1.333-24.581-0.211-49.166-0.139-73.748-0.044-16.939 0.065-33.874 0.466-50.813 0.553-19.614 0.102-39.229 0.025-58.842 0.025v-0.578zM595.135 75.764c-5.458 59.638-66.519 125.867-153.659 120.91-71.72-4.080-124.599-63.019-130.39-120.908h284.052z" />
<glyph unicode="&#xece7;" glyph-name="rulers" d="M50.688 716.032l752.947-876.032 147.149 126.362-752.947 875.93-147.149-126.259zM807.219-112.384l-25.293 29.491 34.099 29.286-15.77 18.33-34.304-29.286-23.45 27.443 50.278 43.008-15.77 18.432-50.381-43.11-17.101 19.968 34.304 29.286-15.872 18.534-34.304-29.491-21.811 25.293 50.381 43.11-15.974 18.534-50.176-43.315-0.819 0.922-16.282 19.046 34.304 29.491-15.77 18.534-34.509-29.491-23.552 27.341 50.381 43.11-15.77 18.534-50.381-43.315-17.101 19.968 34.304 29.491-15.77 18.534-34.509-29.491-7.27 8.499-0.205-0.205-15.872 18.637 45.568 39.117-15.77 18.534-45.568-39.322-17.101 19.968 29.389 25.395-15.77 18.534-29.594-25.395-23.45 27.238 45.568 39.322-15.77 18.33-45.568-39.117-17.101 19.968 29.491 25.395-15.77 18.432-29.594-25.395-23.040 26.829 50.381 43.315-15.974 18.534-50.176-43.315-17.203 19.866 34.509 29.389-15.77 18.534-34.509-29.594-23.552 27.341 50.381 43.315-15.77 18.33-50.381-43.11-17.203 19.968 34.509 29.491-15.77 18.534-34.509-29.594-21.709 25.293 50.381 43.315-15.77 18.33-50.381-43.11-17.101 19.866 34.304 29.594-15.77 18.33-34.304-29.491-23.654 27.341 50.381 43.315-15.77 18.33-50.381-43.315-17.101 19.968 34.304 29.594-15.77 18.432-34.509-29.491-21.094 24.678 95.949 82.227 709.12-824.832-96.051-82.33zM222.31 864l61.85-71.68h-0.205l17.92-20.582 671.949-779.776 0.307 760.115-751.821 111.923zM941.363 83.302l-37.376 43.315 22.221 19.149-12.083 13.824-22.016-19.149-17.51 20.070 37.888 32.87-12.083 13.722-37.683-32.666-13.005 14.95 25.805 22.426-11.878 13.824-25.805-22.426-17.92 20.48 37.888 32.666-12.083 14.029-37.786-32.87-13.005 14.95 25.805 22.426-11.878 13.824-25.805-22.426-16.486 19.046 37.683 32.666-11.878 13.824-37.888-32.87-12.902 15.053 25.805 22.426-11.878 13.824-25.805-22.426-17.92 20.582 37.888 32.666-12.083 13.926-37.683-32.666-13.005 14.95 25.805 22.221-11.878 13.824-25.805-22.426-15.974 18.534 0.614 0.614-9.114 9.933 28.365 24.678-11.878 13.824-30.106-25.805-12.902 14.95 17.92 15.462-12.083 13.824-17.92-15.667-17.715 20.582 29.798 25.907-11.878 13.722-29.798-25.805-12.902 15.053 17.715 15.462-12.083 13.824-17.51-15.462-17.51 20.275 33.382 28.774-12.186 13.926-33.178-28.774-12.902 14.95 21.094 18.432-11.878 13.722-21.094-18.33-17.715 20.582 32.973 28.672-12.083 13.722-32.87-28.57-13.107 15.053 21.094 18.227-12.083 13.824-20.89-18.227-16.384 18.944 32.973 28.57-12.083 13.824-32.87-28.57-12.902 15.053 20.787 18.022-11.878 13.824-20.787-18.022-17.613 20.685 32.666 28.365-12.083 13.722-32.563-28.16-12.902 14.95 20.582 17.818-12.083 13.824-20.48-17.818-37.478 43.418 638.054-94.925-0.205-641.024zM851.046 638.413l-318.566 47.309 318.259-369.562 0.307 322.253zM818.586 403.405l-204.8 237.67 205.005-30.618-0.205-207.053z" />
<glyph unicode="&#xece8;" glyph-name="square-root" d="M419.635 700.16l-130.355-462.131-33.894 128.512-11.162 43.418h-244.224v-117.35h155.75l76.186-288.768h110.797l163.226 579.072h518.042v117.248h-604.365zM847.258 477.44l-118.886-137.83-118.886 137.83-78.336-70.144 127.795-148.173-127.795-148.173 78.336-70.246 118.886 137.83 118.886-137.83 78.336 70.246-127.795 148.173 127.795 148.173-78.336 70.144z" />
</font>
</defs>
</svg>
